<?xml version="1.0" encoding="UTF-8"?>
<svg version="1.1" xmlns="http://www.w3.org/2000/svg" width="512" height="512">
<path d="M0 0 C12.49129797 12.49129797 18.61759753 28.36717328 19.8125 45.8125 C19.78997802 49.42545894 19.58038727 53.02189971 19.3828125 56.62890625 C19.26749043 59.79247661 19.16566852 62.95632658 19.06396484 66.12036133 C18.98009754 68.27873007 18.87097401 70.43627477 18.73583984 72.59204102 C17.78413686 87.87659553 17.78413686 87.87659553 24.92965698 100.86595154 C27.4853213 103.42802251 30.13479575 105.82455476 32.90557861 108.15124512 C35.9130528 110.77126984 38.53416573 113.71667298 41.1875 116.6875 C42.14976663 117.73814837 43.1131294 118.78779507 44.078125 119.8359375 C44.76165039 120.58182129 44.76165039 120.58182129 45.45898438 121.34277344 C46.79254498 122.79083167 48.13838377 124.22755139 49.484375 125.6640625 C50.29390625 126.53804687 51.1034375 127.41203125 51.9375 128.3125 C52.64132812 129.0653125 53.34515625 129.818125 54.0703125 130.59375 C57.61531004 135.10845538 58.31008573 139.14002266 57.8125 144.8125 C56.07279242 149.48224139 54.1059708 152.25468761 49.8125 154.8125 C38.78676822 158.30361347 25.3203098 159.23096581 13.8125 158.8125 C14.1425 161.1225 14.4725 163.4325 14.8125 165.8125 C22.57256006 165.79624177 30.33166228 165.74151636 38.09130859 165.65991211 C40.73154489 165.63670088 43.3718742 165.62232913 46.01220703 165.61694336 C49.80560478 165.60767726 53.59753326 165.56673348 57.390625 165.51953125 C58.57303772 165.5234639 59.75545044 165.52739655 60.97369385 165.53144836 C67.31467541 165.61085715 67.31467541 165.61085715 72.46289062 162.390625 C72.90826172 161.53984375 73.35363281 160.6890625 73.8125 159.8125 C85.04993165 148.90173788 102.83202597 139.8125 118.8125 139.8125 C118.76029297 138.67361328 118.76029297 138.67361328 118.70703125 137.51171875 C118.67996094 136.51785156 118.65289062 135.52398437 118.625 134.5 C118.59019531 133.51386719 118.55539062 132.52773437 118.51953125 131.51171875 C118.8125 128.8125 118.8125 128.8125 120.10546875 126.984375 C122.99316557 125.00197444 125.44109899 125.39107487 128.8125 125.8125 C131.00518229 127.99514713 131.75431218 129.30044718 132.10546875 132.390625 C132.05326172 133.71320313 132.05326172 133.71320313 132 135.0625 C131.97292969 135.95453125 131.94585937 136.8465625 131.91796875 137.765625 C131.86576172 138.77882812 131.86576172 138.77882812 131.8125 139.8125 C132.80507813 139.95945313 133.79765625 140.10640625 134.8203125 140.2578125 C149.93295911 142.67418758 162.02419765 147.8139545 173.8125 157.8125 C174.54082031 158.42738281 175.26914062 159.04226562 176.01953125 159.67578125 C188.78894925 171.4377501 195.76193848 187.82650534 197.8125 204.8125 C198.95138672 204.86857422 198.95138672 204.86857422 200.11328125 204.92578125 C201.10714844 204.99152344 202.10101563 205.05726563 203.125 205.125 C204.11113281 205.18300781 205.09726562 205.24101562 206.11328125 205.30078125 C209.09947936 205.86690564 210.09070909 206.34210435 211.8125 208.8125 C212.46095606 214.86475653 212.46095606 214.86475653 210.64453125 217.51953125 C208.07812452 219.33079059 206.22963815 219.10957546 203.125 219 C202.13113281 218.97292969 201.13726562 218.94585937 200.11328125 218.91796875 C199.35402344 218.88316406 198.59476562 218.84835938 197.8125 218.8125 C197.72613281 219.60011719 197.63976562 220.38773438 197.55078125 221.19921875 C194.80002986 242.52385112 184.39485986 257.37215769 168.66015625 271.4140625 C166.8125 272.8125 166.8125 272.8125 164.8125 272.8125 C164.81803076 273.4095789 164.82356152 274.00665779 164.82925987 274.62182999 C164.96216625 289.19661798 165.06124787 303.77137002 165.12337303 318.34662247 C165.15422043 325.3953665 165.19622389 332.44370433 165.26513672 339.4921875 C165.33166761 346.30032929 165.36625344 353.10804972 165.38176346 359.91649628 C165.39280996 362.50793835 165.41438112 365.0993586 165.44688034 367.69062042 C165.4907341 371.33363289 165.49642161 374.97492816 165.49365234 378.61816406 C165.515224 379.6784079 165.53679565 380.73865173 165.559021 381.83102417 C165.48788343 390.53664682 162.74435354 397.91328433 157.25974083 404.74728775 C149.5999328 412.08130984 139.24311283 413.40872955 129.09887695 413.26660156 C127.98536362 413.26718567 126.87185028 413.26776978 125.72459412 413.26837158 C122.08299417 413.26560854 118.44223632 413.23459998 114.80078125 413.203125 C112.26059923 413.19565631 109.72041142 413.18996635 107.18022156 413.18597412 C101.20220679 413.17231751 95.22454758 413.14086666 89.24667472 413.10057616 C82.43401583 413.0556685 75.62134181 413.033824 68.80857146 413.01379442 C54.80968697 412.97212729 40.81117651 412.89885213 26.8125 412.8125 C26.8125 423.7025 26.8125 434.5925 26.8125 445.8125 C35.51857001 445.65451571 35.51857001 445.65451571 44.22363281 445.45214844 C45.30999023 445.4421582 46.39634766 445.43216797 47.515625 445.421875 C48.62583008 445.40092773 49.73603516 445.37998047 50.87988281 445.35839844 C54.4837416 445.91643851 55.66260681 446.91243131 57.8125 449.8125 C57.8125 452.875 57.8125 452.875 56.8125 455.8125 C53.61144048 458.96710354 51.15027844 459.19172217 46.74647522 459.20690918 C44.88112373 459.22393387 44.88112373 459.22393387 42.97808838 459.24130249 C41.60266049 459.23865924 40.22723319 459.23568803 38.85180664 459.23242188 C37.40121303 459.23976241 35.95062527 459.2483486 34.50004578 459.25808716 C30.5620043 459.2803132 26.62417199 459.28323333 22.6860764 459.28133965 C19.39823879 459.28122 16.11044559 459.28978169 12.82262033 459.29811716 C5.06604296 459.31735498 -2.69042679 459.32023361 -10.44702148 459.31347656 C-18.44856267 459.30683441 -26.44964304 459.32970596 -34.45109075 459.36679029 C-41.32170805 459.39747797 -48.19217703 459.40884838 -55.0628615 459.40495348 C-59.1660869 459.40288507 -63.26895368 459.40837896 -67.37211418 459.43284607 C-71.23089876 459.45509578 -75.08893359 459.45325107 -78.94772148 459.43291855 C-80.36306845 459.42950531 -81.77846572 459.43461133 -83.19374466 459.44890213 C-95.22368711 459.56198378 -95.22368711 459.56198378 -98.56813049 456.4732666 C-100.1875 453.8125 -100.1875 453.8125 -100.1875 450.625 C-99.1875 447.8125 -99.1875 447.8125 -96.1875 445.8125 C-93.3684082 445.58544922 -93.3684082 445.58544922 -89.98828125 445.6171875 C-88.89942627 445.62218262 -87.81057129 445.62717773 -86.6887207 445.63232422 C-85.30644287 445.65053223 -83.92416504 445.66874023 -82.5 445.6875 C-78.106875 445.72875 -73.71375 445.77 -69.1875 445.8125 C-69.1875 434.9225 -69.1875 424.0325 -69.1875 412.8125 C-72.58329346 412.83344727 -75.97908691 412.85439453 -79.4777832 412.87597656 C-90.72141171 412.94237751 -101.96505574 412.98669195 -113.20882893 413.01974869 C-120.02319187 413.04031818 -126.83736821 413.06833023 -133.65161133 413.11425781 C-140.23277028 413.15859304 -146.81378694 413.18166561 -153.39510155 413.19200897 C-155.90081004 413.1993763 -158.40650844 413.21376281 -160.91213417 413.23542023 C-164.43294438 413.26463079 -167.95296427 413.2684485 -171.47387695 413.26660156 C-172.50031311 413.28098267 -173.52674927 413.29536377 -174.58428955 413.31018066 C-183.61036388 413.25924203 -192.93344652 411.19277687 -199.6343689 404.73822021 C-206.72158576 395.95081215 -208.04074564 387.27971876 -207.7734375 376.296875 C-207.76221235 374.94641021 -207.75368791 373.59592058 -207.74771118 372.24542236 C-207.72507185 368.73331262 -207.666377 365.222751 -207.5994873 361.71124268 C-207.53751627 358.11109345 -207.5105808 354.51068792 -207.48046875 350.91015625 C-207.41659893 343.87698032 -207.314535 336.84484254 -207.1875 329.8125 C-208.17556641 329.83868408 -209.16363281 329.86486816 -210.18164062 329.8918457 C-213.87899762 329.98296052 -217.5762573 330.03996858 -221.27441406 330.0871582 C-222.86898536 330.11216413 -224.46344365 330.14618099 -226.05761719 330.18969727 C-242.65318281 330.63106869 -242.65318281 330.63106869 -247.54171181 326.44652557 C-252.95225875 321.07464837 -254.75671063 316.04785779 -254.86514282 308.48103333 C-254.84996109 306.90197456 -254.84996109 306.90197456 -254.83447266 305.29101562 C-254.84323425 304.16153 -254.85199585 303.03204437 -254.86102295 301.86833191 C-254.88294891 298.15140866 -254.86848678 294.43568441 -254.8515625 290.71875 C-254.85493255 288.1261777 -254.85978673 285.53360694 -254.86605835 282.94104004 C-254.87342056 277.51407323 -254.86322504 272.08755329 -254.83935547 266.66064453 C-254.81214776 260.40286049 -254.82096352 254.14589117 -254.8484875 247.88812685 C-254.87398609 241.84707249 -254.87119273 235.80641394 -254.85657883 229.76530457 C-254.85324958 227.20411565 -254.85731487 224.64290586 -254.86897659 222.08174133 C-254.88171222 218.49859993 -254.86226675 214.91701054 -254.83447266 211.33398438 C-254.84459381 210.28127853 -254.85471497 209.22857269 -254.86514282 208.14396667 C-254.75663076 200.57156839 -252.94057404 195.57474801 -247.55745888 190.17847443 C-241.140027 184.63052226 -231.12218013 186.28985706 -223.1875 186.5 C-221.5377942 186.52511338 -219.8880516 186.54792119 -218.23828125 186.56835938 C-214.22043684 186.62311771 -210.20437802 186.70921793 -206.1875 186.8125 C-205.88279785 185.86705322 -205.5780957 184.92160645 -205.26416016 183.94750977 C-202.93282928 177.15916061 -198.53861196 172.55366455 -192.5078125 168.8203125 C-185.03295635 165.57365781 -177.82625729 165.53485671 -169.8046875 165.58544922 C-167.9741407 165.58501114 -167.9741407 165.58501114 -166.10661316 165.58456421 C-162.7827136 165.58571343 -159.45906681 165.59569858 -156.13521194 165.60971212 C-152.65321863 165.62227017 -149.17122145 165.62339396 -145.68920898 165.62576294 C-139.10561498 165.63196287 -132.52208791 165.64835341 -125.93852329 165.66846192 C-118.4390945 165.69086738 -110.9396624 165.701826 -103.44020844 165.71185279 C-88.02260028 165.73272107 -72.60505879 165.76786791 -57.1875 165.8125 C-57.1875 163.8325 -57.1875 161.8525 -57.1875 159.8125 C-58.15574707 159.71227539 -59.12399414 159.61205078 -60.12158203 159.50878906 C-63.73531921 159.13028328 -67.34637088 158.72997068 -70.95703125 158.32324219 C-72.51595961 158.15067425 -74.07554332 157.9839184 -75.63574219 157.82324219 C-77.88676915 157.59037733 -80.13456013 157.33626011 -82.3828125 157.078125 C-83.41911301 156.97785004 -83.41911301 156.97785004 -84.47634888 156.87554932 C-90.15675734 156.18914172 -93.86135773 153.97821867 -98 150.125 C-100.18788761 145.86437676 -100.89579738 141.35486543 -99.59765625 136.6953125 C-97.5667636 132.21514589 -94.70009048 129.00982651 -91.12426758 125.68432617 C-89.28738966 123.90904028 -87.62788757 122.07747837 -85.96875 120.13671875 C-81.43459383 114.90615761 -76.65810013 109.91563698 -71.88476562 104.90429688 C-70.86866211 103.83211914 -70.86866211 103.83211914 -69.83203125 102.73828125 C-69.22721924 102.10317627 -68.62240723 101.46807129 -67.99926758 100.8137207 C-67.40138428 100.15331787 -66.80350098 99.49291504 -66.1875 98.8125 C-65.45893799 98.10206543 -64.73037598 97.39163086 -63.97973633 96.65966797 C-61.39218279 92.54904961 -61.72173447 89.0878773 -61.8671875 84.33203125 C-61.87759064 83.40517014 -61.88799377 82.47830902 -61.89871216 81.52336121 C-61.93424935 78.55659608 -61.9963639 75.59122844 -62.0625 72.625 C-63.03240673 22.00851991 -63.03240673 22.00851991 -45 3 C-29.75539828 -11.55734509 -16.91163435 -11.60602358 0 0 Z M-33.1875 9.8125 C-44.135893 19.65653336 -48.00347879 32.53154243 -49.1875 46.8125 C-50.51078039 73.05756114 -47.85263972 99.36193102 -45.125 125.4375 C-45.03714233 126.27867371 -44.94928467 127.11984741 -44.85876465 127.98651123 C-44.60664849 130.379501 -44.34949861 132.77188005 -44.08984375 135.1640625 C-43.9758448 136.23699554 -43.9758448 136.23699554 -43.85954285 137.331604 C-43.49804174 140.59641475 -42.98696884 143.61462464 -42.1875 146.8125 C-28.3275 146.8125 -14.4675 146.8125 -0.1875 146.8125 C3.5280181 121.68852045 6.14805883 96.21630077 6.8125 70.8125 C6.83441406 70.02423828 6.85632813 69.23597656 6.87890625 68.42382812 C7.35979082 48.40300046 7.10356256 27.40052543 -7.1875 11.8125 C-16.70608585 3.51311573 -22.9573887 2.01737655 -33.1875 9.8125 Z M-63.83056641 115.31665039 C-64.31960449 115.81028076 -64.80864258 116.30391113 -65.3125 116.8125 C-65.81313965 117.31579834 -66.3137793 117.81909668 -66.82958984 118.33764648 C-70.15470859 121.70512002 -73.3429587 125.15517186 -76.41796875 128.75390625 C-79.93105948 132.84087935 -83.57424332 136.81415701 -87.1875 140.8125 C-86.8575 141.4725 -86.5275 142.1325 -86.1875 142.8125 C-84.11185801 143.37663519 -84.11185801 143.37663519 -81.59375 143.6640625 C-80.645 143.79296875 -79.69625 143.921875 -78.71875 144.0546875 C-77.7184375 144.18101562 -76.718125 144.30734375 -75.6875 144.4375 C-74.718125 144.5715625 -73.74875 144.705625 -72.75 144.84375 C-66.74574356 145.63463324 -61.35085533 145.8125 -55.1875 145.8125 C-56.5075 134.5925 -57.8275 123.3725 -59.1875 111.8125 C-61.25053035 111.8125 -62.45324047 113.94539304 -63.83056641 115.31665039 Z M16.8125 111.8125 C16.33121753 115.60390116 15.85286873 119.39566718 15.375 123.1875 C15.24029297 124.24839844 15.10558594 125.30929688 14.96679688 126.40234375 C14.1540376 132.86477119 13.42176044 139.32764451 12.8125 145.8125 C23.26302509 145.33172524 33.47621396 144.4997226 43.8125 142.8125 C43.8125 138.56754248 41.35921031 136.8328824 38.5625 133.9375 C37.46451177 132.77765794 36.3668658 131.61749178 35.26953125 130.45703125 C34.70057129 129.85971191 34.13161133 129.26239258 33.54541016 128.64697266 C31.82673215 126.82756627 30.13403002 124.98749208 28.44921875 123.13671875 C27.91264648 122.54810059 27.37607422 121.95948242 26.82324219 121.35302734 C25.79233951 120.22069817 24.76298362 119.08695837 23.73535156 117.95166016 C21.52782377 115.54241782 19.54795735 113.63613824 16.8125 111.8125 Z M83.578125 168.84375 C73.52680939 180.05141165 68.42467607 191.07388053 65.8125 205.8125 C66.78832031 205.84988281 67.76414062 205.88726562 68.76953125 205.92578125 C70.04183594 205.99152344 71.31414062 206.05726563 72.625 206.125 C73.88957031 206.18300781 75.15414063 206.24101562 76.45703125 206.30078125 C79.8125 206.8125 79.8125 206.8125 81.7734375 208.12890625 C82.8125 209.8125 82.8125 209.8125 82.625 213.4375 C82.356875 214.55125 82.08875 215.665 81.8125 216.8125 C78.8509304 218.2932848 75.97743705 218.16564037 72.6875 218.375 C71.40617187 218.45878906 70.12484375 218.54257813 68.8046875 218.62890625 C67.81726563 218.68949219 66.82984375 218.75007813 65.8125 218.8125 C68.65447841 235.66493336 75.27992538 249.59314216 89.1875 260.1875 C97.42308896 265.78861683 108.53757425 271.8125 118.8125 271.8125 C118.84988281 270.83667969 118.88726562 269.86085938 118.92578125 268.85546875 C118.99152344 267.58316406 119.05726563 266.31085938 119.125 265 C119.21201172 263.10314453 119.21201172 263.10314453 119.30078125 261.16796875 C119.8125 257.8125 119.8125 257.8125 121.12890625 255.8515625 C122.8125 254.8125 122.8125 254.8125 126.4375 255 C127.55125 255.268125 128.665 255.53625 129.8125 255.8125 C131.2932848 258.7740696 131.16564037 261.64756295 131.375 264.9375 C131.45878906 266.21882813 131.54257812 267.50015625 131.62890625 268.8203125 C131.68949219 269.80773437 131.75007813 270.79515625 131.8125 271.8125 C146.8683086 268.60109791 157.69474444 263.8909702 168.8125 252.8125 C169.37710938 252.27109375 169.94171875 251.7296875 170.5234375 251.171875 C178.85726574 242.44119779 182.78606178 230.4307458 184.8125 218.8125 C183.83667969 218.77511719 182.86085938 218.73773438 181.85546875 218.69921875 C180.58316406 218.63347656 179.31085938 218.56773437 178 218.5 C176.73542969 218.44199219 175.47085938 218.38398438 174.16796875 218.32421875 C170.8125 217.8125 170.8125 217.8125 168.8515625 216.49609375 C167.8125 214.8125 167.8125 214.8125 168 211.1875 C168.268125 210.07375 168.53625 208.96 168.8125 207.8125 C171.7740696 206.3317152 174.64756295 206.45935963 177.9375 206.25 C179.21882813 206.16621094 180.50015625 206.08242187 181.8203125 205.99609375 C182.80773437 205.93550781 183.79515625 205.87492187 184.8125 205.8125 C182.71650782 195.98599549 180.4141349 187.31667696 174.8125 178.8125 C174.31105469 178.03519531 173.80960937 177.25789063 173.29296875 176.45703125 C164.81563066 164.47325161 150.84970846 156.10507401 136.5 153.4375 C134.94009901 153.21052439 133.37828631 152.9944952 131.8125 152.8125 C131.77511719 153.78832031 131.73773438 154.76414063 131.69921875 155.76953125 C131.63347656 157.04183594 131.56773437 158.31414062 131.5 159.625 C131.44199219 160.88957031 131.38398438 162.15414062 131.32421875 163.45703125 C130.8125 166.8125 130.8125 166.8125 129.49609375 168.7734375 C127.8125 169.8125 127.8125 169.8125 124.1875 169.625 C122.516875 169.2228125 122.516875 169.2228125 120.8125 168.8125 C119.3317152 165.8509304 119.45935963 162.97743705 119.25 159.6875 C119.16621094 158.40617188 119.08242188 157.12484375 118.99609375 155.8046875 C118.93550781 154.81726563 118.87492187 153.82984375 118.8125 152.8125 C106.57570951 152.8125 92.23509835 160.56316679 83.578125 168.84375 Z M-43.1875 160.8125 C-43.8475 164.4425 -44.5075 168.0725 -45.1875 171.8125 C-29.3475 171.8125 -13.5075 171.8125 2.8125 171.8125 C2.1525 168.1825 1.4925 164.5525 0.8125 160.8125 C-13.7075 160.8125 -28.2275 160.8125 -43.1875 160.8125 Z M-189.1875 182.8125 C-190.1775 184.2975 -190.1775 184.2975 -191.1875 185.8125 C-190.21776749 185.81836624 -189.24803497 185.82423248 -188.24891663 185.83027649 C-179.08340223 185.88763797 -169.91812203 185.96046916 -160.75284672 186.04821491 C-156.04154758 186.09282863 -151.33033312 186.13210434 -146.61889648 186.15893555 C-142.06701185 186.18505861 -137.51545467 186.22552398 -132.96377373 186.27568626 C-131.23240691 186.29229432 -129.50098354 186.30384617 -127.76954842 186.31011391 C-107.68546604 186.39013454 -107.68546604 186.39013454 -100.3125 192 C-95.14060627 198.84515346 -94.7488893 205.50751266 -94.79931641 213.78320312 C-94.79405945 214.85416733 -94.78880249 215.92513153 -94.78338623 217.02854919 C-94.77023834 220.55043343 -94.77890616 224.07186158 -94.7890625 227.59375 C-94.78704028 230.05179938 -94.7841276 232.50984818 -94.78036499 234.96789551 C-94.77594868 240.11228158 -94.78235058 245.25651107 -94.79638672 250.40087891 C-94.81347793 256.98475865 -94.80363307 263.56827146 -94.78566933 270.15213776 C-94.77481292 275.22571563 -94.77828641 280.29920695 -94.7860527 285.37278748 C-94.78804956 287.8000035 -94.78561357 290.22722745 -94.77861404 292.6544342 C-94.77096923 296.05043259 -94.78264695 299.44584217 -94.79931641 302.84179688 C-94.79324371 303.83839828 -94.78717102 304.83499969 -94.78091431 305.86180115 C-94.84118157 312.51161178 -95.47670783 318.56571028 -99.90625 323.87109375 C-100.4940625 324.32613281 -101.081875 324.78117188 -101.6875 325.25 C-102.2753125 325.72308594 -102.863125 326.19617188 -103.46875 326.68359375 C-107.51182795 329.33916086 -111.77683439 328.98412007 -116.42260742 329.01782227 C-117.26185257 329.02772186 -118.10109772 329.03762146 -118.96577454 329.04782104 C-121.74147718 329.07942396 -124.51719695 329.10418874 -127.29296875 329.12890625 C-129.21682685 329.14947682 -131.14068043 329.17047332 -133.06452942 329.19187927 C-138.12959136 329.24708932 -143.19469402 329.29650334 -148.25982666 329.34472656 C-153.42781195 329.39494935 -158.59573808 329.45063136 -163.76367188 329.50585938 C-173.90489738 329.61342791 -184.04617424 329.71487582 -194.1875 329.8125 C-194.1875 332.1225 -194.1875 334.4325 -194.1875 336.8125 C-80.0075 336.8125 34.1725 336.8125 151.8125 336.8125 C151.8125 318.0025 151.8125 299.1925 151.8125 279.8125 C141.53157952 281.52126525 141.53157952 281.52126525 131.8125 284.8125 C131.4199372 287.06951232 131.4199372 287.06951232 131.3125 289.6875 C131.09644271 293.39288253 130.93988529 294.62142206 128.8125 297.8125 C125.3125 298.125 125.3125 298.125 121.8125 297.8125 C119.22323669 295.22323669 119.43851957 293.78544721 119.1875 290.1875 C119.11273438 289.18460937 119.03796875 288.18171875 118.9609375 287.1484375 C118.91195313 286.37757813 118.86296875 285.60671875 118.8125 284.8125 C117.81992187 284.59335937 116.82734375 284.37421875 115.8046875 284.1484375 C94.78131336 279.32314454 76.57639947 270.22334199 64.5625 251.5625 C58.50311554 241.20251862 55.17130177 230.52979983 52.8125 218.8125 C52.04164063 218.76351562 51.27078125 218.71453125 50.4765625 218.6640625 C49.47367188 218.58929688 48.47078125 218.51453125 47.4375 218.4375 C45.94089844 218.33308594 45.94089844 218.33308594 44.4140625 218.2265625 C41.8125 217.8125 41.8125 217.8125 39.8125 215.8125 C39.5 212.3125 39.5 212.3125 39.8125 208.8125 C42.97490582 206.70422945 44.31907469 206.47432535 48 206.1875 C48.90105469 206.11273438 49.80210937 206.03796875 50.73046875 205.9609375 C51.41753906 205.91195312 52.10460937 205.86296875 52.8125 205.8125 C53.17601562 204.14574219 53.17601562 204.14574219 53.546875 202.4453125 C53.88498291 200.94261067 54.22354948 199.44001199 54.5625 197.9375 C54.71976563 197.21046875 54.87703125 196.4834375 55.0390625 195.734375 C56.00500072 191.49910743 57.24863349 187.54460709 58.89160156 183.51904297 C59.25143127 182.63328583 59.61126099 181.74752869 59.98199463 180.83493042 C60.39309479 179.83382736 60.39309479 179.83382736 60.8125 178.8125 C54.3347714 178.71109507 47.85724739 178.64103283 41.37890625 178.59277344 C39.1750524 178.57265581 36.97125193 178.54535828 34.76757812 178.51074219 C31.60012644 178.46223167 28.43338032 178.43953264 25.265625 178.421875 C24.28007629 178.40122986 23.29452759 178.38058472 22.27911377 178.35931396 C16.91245839 178.22259281 16.91245839 178.22259281 12.40917969 180.77441406 C11.88227539 181.44698242 11.35537109 182.11955078 10.8125 182.8125 C7.66490667 183.91834394 4.64350405 183.9501756 1.32885742 183.97363281 C0.23059128 183.98324036 -0.86767487 183.9928479 -1.9992218 184.00274658 C-3.77271248 184.0091214 -3.77271248 184.0091214 -5.58203125 184.015625 C-6.80274826 184.02132507 -8.02346527 184.02702515 -9.28117371 184.03289795 C-11.86427952 184.04234352 -14.44739737 184.04888017 -17.03051758 184.05273438 C-20.97433582 184.06243686 -24.91763224 184.09346423 -28.86132812 184.125 C-31.37239274 184.1315306 -33.88346108 184.13678085 -36.39453125 184.140625 C-38.15891289 184.1591452 -38.15891289 184.1591452 -39.9589386 184.17803955 C-46.1159917 184.16135855 -50.80608062 183.93759394 -56.1875 180.8125 C-56.5175 180.1525 -56.8475 179.4925 -57.1875 178.8125 C-73.21688713 178.71893631 -89.24618527 178.64846205 -105.27577972 178.60525131 C-112.71910242 178.58465188 -120.16225516 178.55658174 -127.60546875 178.51074219 C-134.09521556 178.47079378 -140.58483924 178.44504815 -147.0747056 178.43614602 C-150.50908056 178.4309447 -153.94310335 178.41877532 -157.37736511 178.38957977 C-161.21728328 178.36051069 -165.05647374 178.35654567 -168.89648438 178.35839844 C-170.02721375 178.34401733 -171.15794312 178.32963623 -172.32293701 178.31481934 C-179.06478203 178.3499794 -183.47440425 179.13780706 -189.1875 182.8125 Z M-241.1875 202.8125 C-241.28955596 204.24765651 -241.32268236 205.68778541 -241.32794189 207.1265564 C-241.33365204 208.05756668 -241.33936218 208.98857697 -241.34524536 209.94779968 C-241.34636322 210.97742325 -241.34748108 212.00704681 -241.34863281 213.06787109 C-241.35359772 214.14584457 -241.35856262 215.22381805 -241.36367798 216.3344574 C-241.37834294 219.91829047 -241.3851087 223.50207929 -241.390625 227.0859375 C-241.39637275 229.56596885 -241.40213052 232.04600019 -241.40789795 234.52603149 C-241.4184202 239.73317676 -241.42425489 244.94030653 -241.42773438 250.14746094 C-241.43150214 255.50396849 -241.44559541 260.86033871 -241.46875 266.21679688 C-241.49621781 272.66942492 -241.50913892 279.12191912 -241.51107025 285.57460403 C-241.51410547 288.03945656 -241.52216303 290.50430804 -241.53525543 292.96912766 C-241.5522395 296.4123574 -241.55045427 299.85508564 -241.54394531 303.29833984 C-241.5531601 304.32391495 -241.56237488 305.34949005 -241.5718689 306.40614319 C-241.56629974 307.34279312 -241.56073059 308.27944305 -241.55499268 309.24447632 C-241.55645924 310.05896429 -241.5579258 310.87345226 -241.5594368 311.71262169 C-241.32579354 313.86862275 -241.32579354 313.86862275 -239.98673534 315.57335091 C-237.56596402 317.24055726 -235.96295304 317.19514092 -233.03224182 317.20690918 C-231.9653009 317.21825897 -230.89835999 317.22960876 -229.79908752 317.24130249 C-228.62861374 317.23837189 -227.45813995 317.23544128 -226.25219727 317.23242188 C-224.40312271 317.24512619 -224.40312271 317.24512619 -222.51669312 317.25808716 C-219.13430109 317.27749894 -215.75246032 317.28323276 -212.37004972 317.28133965 C-209.54692127 317.28122005 -206.72384461 317.28977966 -203.90073055 317.29811716 C-197.24067008 317.31735962 -190.58073495 317.32023203 -183.9206543 317.31347656 C-177.04890973 317.30683469 -170.1777018 317.32970339 -163.3060661 317.36679029 C-157.40702198 317.39747331 -151.50815061 317.40884889 -145.60902828 317.40495348 C-142.08539005 317.40288448 -138.56216936 317.40838745 -135.03860664 317.43284607 C-131.10958902 317.45921766 -127.18127588 317.44539582 -123.25219727 317.42773438 C-122.08374771 317.44099762 -120.91529816 317.45426086 -119.71144104 317.46792603 C-113.71128002 317.47389168 -113.71128002 317.47389168 -108.46382141 314.91944885 C-106.60735787 310.40026016 -106.64589856 306.32977277 -106.70166016 301.48608398 C-106.69596512 299.92917847 -106.69596512 299.92917847 -106.69015503 298.34082031 C-106.6827511 294.91310319 -106.70412933 291.48623542 -106.7265625 288.05859375 C-106.72894694 285.67635701 -106.72985225 283.29411837 -106.7293396 280.91188049 C-106.73246727 275.92103288 -106.74903157 270.9304726 -106.77587891 265.93969727 C-106.80987685 259.53810875 -106.81750692 253.13683572 -106.81598854 246.7351675 C-106.81653201 241.81701132 -106.82749521 236.89892429 -106.84199142 231.98079109 C-106.84836119 229.62005194 -106.85229874 227.25930495 -106.85377884 224.89855766 C-106.85810881 221.60207608 -106.87560318 218.30593093 -106.89697266 215.00952148 C-106.8956131 213.54208244 -106.8956131 213.54208244 -106.89422607 212.04499817 C-106.90702103 210.69711716 -106.90702103 210.69711716 -106.92007446 209.32200623 C-106.92342615 208.5431327 -106.92677784 207.76425917 -106.93023109 206.96178341 C-107.2310862 204.44837087 -107.77840966 202.91839703 -109.1875 200.8125 C-112.18826542 198.76440532 -114.68594324 198.56006715 -118.26646423 198.55180359 C-119.29126389 198.54471878 -120.31606354 198.53763397 -121.37191772 198.53033447 C-122.4904715 198.53281189 -123.60902527 198.53528931 -124.76147461 198.5378418 C-125.94396286 198.53273087 -127.12645111 198.52761993 -128.34477234 198.52235413 C-131.58448516 198.51083676 -134.82403929 198.5083844 -138.06376719 198.51091743 C-140.77002861 198.51198777 -143.47626647 198.50710216 -146.18252283 198.502312 C-152.56790752 198.49122002 -158.95323339 198.49077766 -165.33862305 198.49682617 C-171.92224192 198.50286663 -178.50564711 198.49055257 -185.08922952 198.4692561 C-190.74540631 198.45163351 -196.40151511 198.44563977 -202.05771834 198.44889385 C-205.43427406 198.45070581 -208.81067735 198.44807937 -212.18720818 198.43417931 C-215.95301733 198.42186555 -219.71832986 198.42857669 -223.48413086 198.44018555 C-224.6006604 198.43254181 -225.71718994 198.42489807 -226.86755371 198.41702271 C-228.40898293 198.42754417 -228.40898293 198.42754417 -229.98155212 198.4382782 C-231.31635069 198.43802659 -231.31635069 198.43802659 -232.67811489 198.43776989 C-236.05653223 198.94227384 -238.75865331 200.38365331 -241.1875 202.8125 Z M-194.1875 349.8125 C-197.32971328 383.65733639 -197.32971328 383.65733639 -190.1875 394.8125 C-185.38657033 398.53566995 -181.85357485 399.93559964 -175.84314442 399.94672108 C-174.16955521 399.95340784 -174.16955521 399.95340784 -172.46215612 399.96022969 C-171.23124814 399.96004533 -170.00034017 399.95986097 -168.73213196 399.95967102 C-167.42847645 399.96334771 -166.12482095 399.9670244 -164.78166074 399.9708125 C-161.15537854 399.98083715 -157.52911289 399.98455004 -153.9028188 399.98720181 C-149.99469939 399.99110349 -146.0865931 400.00068192 -142.17848206 400.00941467 C-132.73653044 400.02918299 -123.29457775 400.03924578 -113.85261062 400.04814246 C-109.40711779 400.05252478 -104.96162615 400.05789174 -100.51613426 400.06313133 C-85.73980742 400.08014401 -70.96348132 400.09463842 -56.18714619 400.10188007 C-52.35205904 400.10378999 -48.51697189 400.10571032 -44.68188477 400.10766602 C-43.72868303 400.10814976 -42.77548129 400.1086335 -41.79339465 400.1091319 C-26.35042111 400.11743308 -10.907525 400.14277132 4.53541472 400.17524669 C20.38736384 400.20831063 36.2392736 400.22632823 52.09125739 400.22952431 C60.99277377 400.23169003 69.89417723 400.24044771 78.79566002 400.26598549 C86.37626487 400.2876834 93.95672938 400.2957474 101.53736176 400.28601871 C105.40471731 400.28147134 109.27178322 400.28338535 113.13909912 400.30278015 C117.33367482 400.32363437 121.52760711 400.31343519 125.72221375 400.30024719 C126.94196811 400.31121644 128.16172247 400.32218568 129.41843909 400.33348733 C136.35955317 400.28072085 140.92223513 399.57482057 146.8125 395.8125 C158.56226982 383.46017788 151.8125 367.75848226 151.8125 349.8125 C37.6325 349.8125 -76.5475 349.8125 -194.1875 349.8125 Z M-57.1875 412.8125 C-57.1875 423.7025 -57.1875 434.5925 -57.1875 445.8125 C-33.4275 445.8125 -9.6675 445.8125 14.8125 445.8125 C14.8125 434.9225 14.8125 424.0325 14.8125 412.8125 C-8.9475 412.8125 -32.7075 412.8125 -57.1875 412.8125 Z " fill="#000000" transform="translate(277.1875,31.1875)"/>
<path d="M0 0 C0.82113281 -0.02900391 1.64226562 -0.05800781 2.48828125 -0.08789062 C9.56175061 -0.16075521 14.75267257 1.54493286 19.9921875 6.3828125 C20.53101563 7.06085938 21.06984375 7.73890625 21.625 8.4375 C22.45644531 9.46230469 22.45644531 9.46230469 23.3046875 10.5078125 C23.78164062 11.10335937 24.25859375 11.69890625 24.75 12.3125 C27.18012047 14.74262047 27.77817863 14.56260167 31.10449219 14.56787109 C32.45664825 14.57830948 32.45664825 14.57830948 33.83612061 14.58895874 C34.81316956 14.58796173 35.79021851 14.58696472 36.796875 14.5859375 C38.85938036 14.6062336 40.92188031 14.62708451 42.984375 14.6484375 C46.24093161 14.67101158 49.49727508 14.68749509 52.75390625 14.69335938 C55.89362315 14.70289679 59.03237484 14.73669967 62.171875 14.7734375 C63.14082703 14.76839203 64.10977905 14.76334656 65.10809326 14.75814819 C70.97478871 14.84327675 74.24904755 15.46670411 78.75 19.3125 C82.10616471 23.13158398 82.87309559 26.32309274 82.91113281 31.33129883 C82.92074036 32.35278519 82.9303479 33.37427155 82.94024658 34.42671204 C82.94449646 35.52984238 82.94874634 36.63297272 82.953125 37.76953125 C82.95882507 38.9052507 82.96452515 40.04097015 82.97039795 41.21110535 C82.97984953 43.61606921 82.98638256 46.02104604 82.99023438 48.42602539 C82.99993401 52.10000288 83.03095426 55.7734196 83.0625 59.44726562 C83.06903072 61.78385084 83.07428092 64.12044007 83.078125 66.45703125 C83.0904718 67.5540889 83.1028186 68.65114655 83.11553955 69.78144836 C83.09443859 77.03008883 82.24944005 81.49261892 77.3125 87.0625 C72.69748915 91.11470465 69.19954391 91.61070763 63.1550293 91.60302734 C62.0152211 91.61310318 62.0152211 91.61310318 60.85238647 91.62338257 C58.3429305 91.64236352 55.83374203 91.64628699 53.32421875 91.6484375 C51.57550446 91.65486609 49.82679126 91.6615945 48.07807922 91.66860962 C44.41213489 91.68058314 40.74628478 91.68429044 37.08032227 91.68310547 C32.39284239 91.68290244 27.70596991 91.71018716 23.01863384 91.74464989 C19.40598297 91.76693791 15.79347773 91.77094241 12.18076515 91.76988602 C10.45326459 91.77223978 8.72575988 91.78105065 6.99832726 91.79655075 C4.57617644 91.8162469 2.15532812 91.81035905 -0.2668457 91.79833984 C-0.97410294 91.80957886 -1.68136017 91.82081787 -2.41004944 91.83239746 C-8.82653777 91.75188448 -13.04613125 89.51636875 -17.5625 85 C-22.1726117 77.65797025 -21.5566973 69.75331518 -21.55078125 61.34765625 C-21.55467528 59.98676932 -21.55901139 58.62588359 -21.56376648 57.26499939 C-21.57119997 54.42149911 -21.57095824 51.57812306 -21.56567383 48.73461914 C-21.55988059 45.10896573 -21.5768201 41.48382342 -21.6000185 37.85825443 C-21.61482151 35.05021747 -21.61561872 32.24230179 -21.61250877 29.43423271 C-21.6132647 27.45353313 -21.62708103 25.47285223 -21.64118958 23.49220276 C-21.56517868 8.62767868 -21.56517868 8.62767868 -15.8125 2.875 C-10.80028788 -0.1812269 -5.71900299 0.06609017 0 0 Z M-8.25 14.3125 C-8.35958281 16.16265647 -8.3990991 18.01700153 -8.41113281 19.87036133 C-8.42074036 21.05862015 -8.4303479 22.24687897 -8.44024658 23.47114563 C-8.44449646 24.76586288 -8.44874634 26.06058014 -8.453125 27.39453125 C-8.45887506 28.72873437 -8.46463281 30.06293745 -8.47039795 31.3971405 C-8.48091806 34.19909044 -8.48675367 37.0010116 -8.49023438 39.80297852 C-8.49571251 43.39105267 -8.5197211 46.97874605 -8.54820633 50.56670094 C-8.56684685 53.32481488 -8.57203911 56.08283753 -8.57357025 58.84100914 C-8.57806634 60.806389 -8.59670961 62.77171997 -8.61553955 64.73701477 C-8.61253845 65.93473007 -8.60953735 67.13244537 -8.60644531 68.36645508 C-8.61009094 69.42044998 -8.61373657 70.47444489 -8.61749268 71.56037903 C-8.18283649 74.81548177 -7.73680961 76.15054425 -5.25 78.3125 C-2.06537421 78.91631594 -2.06537421 78.91631594 1.65234375 78.81420898 C2.35022003 78.81961197 3.04809631 78.82501495 3.76712036 78.83058167 C6.0743448 78.84309081 8.38032661 78.82656511 10.6875 78.80859375 C12.29028387 78.80874869 13.89306812 78.81023682 15.49584961 78.81300354 C18.85514893 78.8143885 22.21402179 78.80181376 25.57324219 78.77905273 C29.88109339 78.75066743 34.18823588 78.75340394 38.49613953 78.76614285 C41.8058478 78.77309504 45.11539202 78.76531608 48.42507935 78.75288582 C50.01351289 78.74836682 51.60196402 78.74803843 53.19039917 78.75195122 C55.40985261 78.75485904 57.62832653 78.73837869 59.84765625 78.71655273 C61.11101807 78.71114975 62.37437988 78.70574677 63.67602539 78.70018005 C66.69357474 78.54645754 66.69357474 78.54645754 68.65911865 77.07145691 C70.05330826 74.82344024 70.11836587 73.40554058 70.10644531 70.76513672 C70.10944641 69.84763641 70.11244751 68.93013611 70.11553955 67.98483276 C70.10319275 66.99725983 70.09084595 66.00968689 70.078125 64.9921875 C70.07531525 63.47058517 70.07531525 63.47058517 70.07244873 61.91824341 C70.06572607 59.77472648 70.05180739 57.63122186 70.03125 55.48779297 C70.00005748 52.19356995 69.99027622 48.89982488 69.984375 45.60546875 C69.97520683 43.52603579 69.96483165 41.44660772 69.953125 39.3671875 C69.94887512 38.3755661 69.94462524 37.3839447 69.94024658 36.36227417 C69.93063904 35.45107819 69.92103149 34.5398822 69.91113281 33.60107422 C69.90430481 32.79515839 69.89747681 31.98924255 69.89044189 31.15890503 C69.95035305 29.2957061 69.95035305 29.2957061 68.75 28.3125 C65.66985711 28.18901137 62.6087432 28.12627737 59.52734375 28.1015625 C57.60741367 28.07347177 55.68749192 28.04480719 53.76757812 28.015625 C50.73511177 27.97451013 47.70279717 27.93763368 44.67016602 27.91113281 C41.74722854 27.88336144 38.82500302 27.83746452 35.90234375 27.7890625 C35.00619858 27.78580963 34.11005341 27.78255676 33.18675232 27.77920532 C26.63259811 27.65251742 20.90619912 26.72014924 15.54296875 22.62890625 C15.01316406 22.05011719 14.48335937 21.47132812 13.9375 20.875 C13.39480469 20.29878906 12.85210937 19.72257812 12.29296875 19.12890625 C10.75 17.3125 10.75 17.3125 9.52734375 15.109375 C7.75042785 12.94043577 7.75042785 12.94043577 4.2109375 12.88671875 C2.84854392 12.90394746 1.48628558 12.94242683 0.125 13 C-0.56851563 13.00966797 -1.26203125 13.01933594 -1.9765625 13.02929688 C-5.40358349 12.83115555 -5.40358349 12.83115555 -8.25 14.3125 Z " fill="#000000" transform="translate(86.25,70.6875)"/>
<path d="M0 0 C2.17585822 3.26378733 2.24605016 4.15904315 2.22705078 7.93041992 C2.22689972 8.93123093 2.22674866 9.93204193 2.22659302 10.96318054 C2.21627045 12.04138565 2.20594788 13.11959076 2.1953125 14.23046875 C2.1924826 15.33602615 2.18965271 16.44158356 2.18673706 17.5806427 C2.17553002 21.11637128 2.15042427 24.6518478 2.125 28.1875 C2.11497089 30.58267864 2.10584492 32.97786124 2.09765625 35.37304688 C2.07558897 41.24878411 2.04210618 47.12437405 2 53 C3.11503906 52.97679687 4.23007813 52.95359375 5.37890625 52.9296875 C9 53 9 53 10.9375 54.125 C12.50422245 56.88980433 12.38976435 58.88188517 12 62 C10.14657225 64.55949546 9.06243607 64.97918798 6 66 C4.58991347 66.09437199 3.17583364 66.13483894 1.76260376 66.14044189 C0.8990477 66.14615204 0.03549164 66.15186218 -0.85423279 66.15774536 C-1.7987178 66.15886322 -2.74320282 66.15998108 -3.71630859 66.16113281 C-4.71333298 66.16609772 -5.71035736 66.17106262 -6.7375946 66.17617798 C-10.04121588 66.19080258 -13.34478915 66.1976018 -16.6484375 66.203125 C-18.94145713 66.2088758 -21.23447674 66.21463354 -23.52749634 66.22039795 C-28.33766911 66.23090851 -33.14782517 66.23675095 -37.95800781 66.24023438 C-44.1241626 66.245722 -50.29009689 66.26975569 -56.45618248 66.29820633 C-61.19335579 66.31682086 -65.93047585 66.32203766 -70.66768265 66.32357025 C-72.94108919 66.32659952 -75.21449474 66.33463721 -77.48786545 66.34775543 C-80.66704901 66.36479231 -83.84569177 66.36294137 -87.02490234 66.35644531 C-87.9653389 66.3656601 -88.90577545 66.37487488 -89.87471008 66.3843689 C-94.70057527 66.35344838 -98.1297776 66.2416318 -102 63 C-102.8123285 60.13128745 -102.33710103 58.0339093 -102 55 C-100 53 -100 53 -97.6171875 52.8046875 C-96.25980469 52.83949219 -96.25980469 52.83949219 -94.875 52.875 C-93.96492188 52.89304687 -93.05484375 52.91109375 -92.1171875 52.9296875 C-91.41851562 52.95289063 -90.71984375 52.97609375 -90 53 C-90.01571045 52.13721436 -90.0314209 51.27442871 -90.04760742 50.38549805 C-90.09875955 47.18190733 -90.1363616 43.97852485 -90.16479492 40.7746582 C-90.17987397 39.38852081 -90.2003405 38.00243106 -90.22631836 36.61645508 C-90.26273716 34.62341854 -90.27813018 32.63003277 -90.29296875 30.63671875 C-90.31653442 28.83787231 -90.31653442 28.83787231 -90.34057617 27.00268555 C-90 24 -90 24 -88.70043945 22.11254883 C-85.79790806 20.21350568 -83.34356451 20.58205444 -80 21 C-77.58130217 23.30444778 -77.03528962 24.68661805 -76.65942383 28.02441406 C-76.67513428 29.17651367 -76.69084473 30.32861328 -76.70703125 31.515625 C-76.71669922 32.76601563 -76.72636719 34.01640625 -76.73632812 35.3046875 C-76.76146484 36.60664063 -76.78660156 37.90859375 -76.8125 39.25 C-76.83280273 41.22613281 -76.83280273 41.22613281 -76.85351562 43.2421875 C-76.88887191 46.494966 -76.94267848 49.74753443 -77 53 C-72.71 53 -68.42 53 -64 53 C-64.01571045 52.0212793 -64.0314209 51.04255859 -64.04760742 50.03417969 C-64.1019857 46.39640562 -64.13637848 42.75866736 -64.16479492 39.12060547 C-64.17986364 37.54730178 -64.20032245 35.97403998 -64.22631836 34.40087891 C-64.26278738 32.13693904 -64.27974508 29.87355543 -64.29296875 27.609375 C-64.30845261 26.90818542 -64.32393646 26.20699585 -64.33988953 25.48455811 C-64.34095277 22.38584379 -64.17227613 20.30396252 -62.63012695 17.58300781 C-60.42245355 15.43914764 -59.06892435 15.07306963 -56 15 C-53.36645508 15.99926758 -53.36645508 15.99926758 -51 18 C-50.54428997 20.85284279 -50.41387193 23.10516971 -50.51171875 25.94921875 C-50.51879349 26.72183548 -50.52586823 27.49445221 -50.53315735 28.29048157 C-50.56113745 30.75714142 -50.62387593 33.22152704 -50.6875 35.6875 C-50.7125785 37.35999324 -50.73539246 39.03252209 -50.75585938 40.70507812 C-50.81097509 44.80426109 -50.89726704 48.90174507 -51 53 C-46.38 53 -41.76 53 -37 53 C-37.0314209 51.251427 -37.0314209 51.251427 -37.06347656 49.4675293 C-37.13583287 45.14587673 -37.18178362 40.82427776 -37.21972656 36.50219727 C-37.23985207 34.63101196 -37.26715549 32.75988961 -37.30175781 30.88891602 C-37.35023581 28.20052568 -37.37295872 25.51296612 -37.390625 22.82421875 C-37.41127014 21.98662521 -37.43191528 21.14903168 -37.45318604 20.28605652 C-37.45542139 14.51068097 -37.45542139 14.51068097 -35.16699219 11.94458008 C-32.04285532 10.58278585 -30.21157391 10.9750296 -27 12 C-24.22056188 14.55084044 -23.99663156 16.03808385 -23.65942383 19.85058594 C-23.65989652 21.39526374 -23.6767112 22.93999473 -23.70703125 24.484375 C-23.71127609 25.29996887 -23.71552094 26.11556274 -23.71989441 26.95587158 C-23.73665285 29.55425384 -23.77429903 32.15185319 -23.8125 34.75 C-23.82755054 36.51431169 -23.8412383 38.27863558 -23.85351562 40.04296875 C-23.88654699 44.36227965 -23.93830914 48.6810072 -24 53 C-19.71 53 -15.42 53 -11 53 C-11.02618408 51.50629883 -11.05236816 50.01259766 -11.0793457 48.47363281 C-11.16980395 42.93504804 -11.22723434 37.39652862 -11.2746582 31.85742188 C-11.29981212 29.45952375 -11.33393919 27.06170236 -11.37719727 24.6640625 C-11.43780735 21.21855751 -11.46620156 17.77406554 -11.48828125 14.328125 C-11.51408768 13.25508118 -11.5398941 12.18203735 -11.56648254 11.07647705 C-11.56928052 3.66222306 -11.56928052 3.66222306 -8.66870117 0.28808594 C-5.26129395 -1.3565468 -3.56074937 -1.18691646 0 0 Z " fill="#000000" transform="translate(148,269)"/>
<path d="M0 0 C7.95766903 8.55966763 9.65776754 18.33276358 9.46484375 29.56640625 C9.24006723 34.6848249 8.00402815 38.5264789 5.1875 42.8125 C4.53394531 43.85277344 4.53394531 43.85277344 3.8671875 44.9140625 C-0.54493427 51.35142049 -6.69686035 56.8511152 -14.22265625 59.33984375 C-23.96451727 61.11777012 -35.25341604 61.2832547 -43.8125 55.8125 C-52.86498729 49.13662442 -58.7844612 41.65252947 -60.59375 30.4140625 C-61.37166841 21.16239003 -59.69457587 12.15150695 -54.16796875 4.55078125 C-47.34041686 -3.49650758 -40.24376319 -7.73527928 -29.9375 -10.0625 C-18.99025508 -10.94534233 -8.09699783 -7.39898077 0 0 Z M-42.15234375 10.9921875 C-46.27561442 15.51323252 -47.96841188 20.72080031 -47.8125 26.8125 C-46.45076232 35.08433206 -41.73055227 40.89674017 -35.125 45.8125 C-28.70256193 47.75134923 -21.65873351 48.02562726 -15.4375 45.25 C-9.74443532 41.9053245 -5.87002787 37.05990281 -3.8125 30.8125 C-2.90557294 23.7574511 -3.4737314 17.59330831 -7.8125 11.8125 C-12.65611742 6.76659694 -17.49094882 3.49254121 -24.60546875 2.79296875 C-31.75398578 2.85622996 -37.09446856 6.18569776 -42.15234375 10.9921875 Z " fill="#000000" transform="translate(427.8125,218.1875)"/>
<path d="M0 0 C2.75051447 2.81151099 3.37501594 4.84365469 3.38476562 8.72094727 C3.39487671 9.65193741 3.40498779 10.58292755 3.41540527 11.54212952 C3.41238403 12.54014084 3.40936279 13.53815216 3.40625 14.56640625 C3.41708618 15.59684555 3.42792236 16.62728485 3.43908691 17.68894958 C3.48499555 22.09686728 3.49645431 26.50472766 3.51123047 30.9128418 C3.52688787 34.13091214 3.55987863 37.34848457 3.59375 40.56640625 C3.59072876 41.5664418 3.58770752 42.56647736 3.58459473 43.59681702 C3.59470581 44.524655 3.60481689 45.45249298 3.61523438 46.40844727 C3.61728882 47.22467056 3.61934326 48.04089386 3.62145996 48.8818512 C4.09392203 51.52554769 4.83389715 52.44299986 7 54 C10.11993606 53.92457659 10.11993606 53.92457659 13 53 C14.79815226 49.40369548 14.35318173 45.13371027 14.5234375 41.1640625 C15.02698449 37.82084066 15.68430375 36.40740699 18 34 C20.70396952 32.73814756 21.8047815 32.94098045 24.6875 33.8125 C27 35 27 35 28 37 C29.14443283 54.44791033 29.14443283 54.44791033 25.34375 60.48828125 C21.77659457 64.5013311 17.44235068 67.65309644 11.984375 68.203125 C5.26802159 68.34402752 0.52399863 67.12245339 -4.75 62.6875 C-10.23990584 56.13011247 -10.44498965 50.60544432 -10.3984375 42.36328125 C-10.40274277 40.68869087 -10.40274277 40.68869087 -10.40713501 38.98027039 C-10.40917156 36.62771088 -10.40367039 34.27513429 -10.39111328 31.92260742 C-10.37500919 28.31455921 -10.39099996 24.70762355 -10.41015625 21.09960938 C-10.40817464 18.81249752 -10.40433266 16.52538636 -10.3984375 14.23828125 C-10.40451019 13.15702469 -10.41058289 12.07576813 -10.4168396 10.96174622 C-10.40265488 9.45954781 -10.40265488 9.45954781 -10.38818359 7.92700195 C-10.38579681 7.0457515 -10.38341003 6.16450104 -10.38095093 5.25654602 C-9.39592972 -0.57818366 -5.17273746 -0.64659218 0 0 Z " fill="#000000" transform="translate(282,230)"/>
<path d="M0 0 C3.5 0.4375 3.5 0.4375 5.19448853 1.65690613 C6.91759069 4.00705411 6.88032718 5.46374346 6.88818359 8.36450195 C6.89764008 9.36596756 6.90709656 10.36743317 6.9168396 11.39924622 C6.91076691 12.48050278 6.90469421 13.56175934 6.8984375 14.67578125 C6.90130768 15.78930466 6.90417786 16.90282806 6.90713501 18.0500946 C6.90917796 20.40799467 6.90363208 22.76591158 6.89111328 25.1237793 C6.87510893 28.72548622 6.89093156 32.32606317 6.91015625 35.92773438 C6.90817297 38.21875247 6.90432755 40.50976987 6.8984375 42.80078125 C6.90754654 44.41355705 6.90754654 44.41355705 6.9168396 46.05891418 C6.85049684 53.15112453 5.90765853 57.56168565 1.25 63.125 C-3.79013847 67.36329826 -8.71842244 69.04750062 -15.23046875 68.78125 C-20.92858109 67.91819684 -25.01805306 65.49958153 -28.4375 60.875 C-31.60593672 56.0525319 -31.68279923 51.56902761 -31.6875 45.9375 C-31.69974609 45.16535156 -31.71199219 44.39320313 -31.72460938 43.59765625 C-31.73476991 39.6892352 -31.71572048 37.76108072 -29.5 34.4375 C-27.1875 33.5625 -27.1875 33.5625 -24.5 33.4375 C-19.90298507 35.63152985 -19.90298507 35.63152985 -18.5 38.4375 C-18.26201499 41.74725448 -18.11732114 45.05585735 -17.9765625 48.37109375 C-17.7363433 51.39983469 -17.7363433 51.39983469 -16.15625 53.359375 C-14.39149565 54.74187542 -14.39149565 54.74187542 -11.375 54.25 C-10.42625 53.981875 -9.4775 53.71375 -8.5 53.4375 C-7.31508538 51.06767077 -7.36326831 49.60331808 -7.34228516 46.95947266 C-7.32689194 45.56760239 -7.32689194 45.56760239 -7.31118774 44.14761353 C-7.30388641 43.14241669 -7.29658508 42.13721985 -7.2890625 41.1015625 C-7.26099593 38.98436724 -7.23233148 36.86717984 -7.203125 34.75 C-7.16183227 31.40332236 -7.12495511 28.05679173 -7.09863281 24.70996094 C-7.07106149 21.48601786 -7.02519046 18.26274745 -6.9765625 15.0390625 C-6.97330963 14.03791412 -6.97005676 13.03676575 -6.96670532 12.00527954 C-6.95013885 11.07106171 -6.93357239 10.13684387 -6.91650391 9.17431641 C-6.90841705 8.35428131 -6.9003302 7.53424622 -6.89199829 6.68936157 C-6.10525771 2.16987535 -4.5030944 0.5628868 0 0 Z " fill="#000000" transform="translate(233.5,229.5625)"/>
<path d="M0 0 C4.12839066 1.5652666 4.12839066 1.5652666 5.47265625 3.9375 C5.66015625 7.3125 5.66015625 7.3125 4.47265625 10.9375 C2.90112305 12.20068359 2.90112305 12.20068359 0.921875 13.3359375 C-1.94306358 15.01094212 -4.72843271 16.73550121 -7.48828125 18.578125 C-19.10778772 25.70393658 -29.30321049 26.58514879 -42.55941772 26.4078064 C-55.3051735 26.27942329 -64.61675136 28.73730793 -76.0078125 34.78515625 C-80.15602193 36.95897546 -82.88202422 37.51665672 -87.52734375 36.9375 C-89.46484375 35.875 -89.46484375 35.875 -90.52734375 33.9375 C-91.08984375 30.5 -91.08984375 30.5 -90.52734375 26.9375 C-76.44029648 15.58376041 -58.94430001 12.25386337 -41.42150879 12.60324097 C-28.38973547 12.79079764 -19.31696471 9.08424958 -8.23828125 2.4296875 C-4.97123923 0.51144193 -3.88501217 -0.06883742 0 0 Z " fill="#000000" transform="translate(144.52734375,244.0625)"/>
<path d="M0 0 C5.95167355 3.54383881 9.18804897 8.47060277 11.125 15.0078125 C12.28671878 21.29354092 10.98216871 27.00123489 7.5625 32.375 C2.31413499 38.31393935 -2.36366681 41.10341112 -10.1875 41.625 C-16.15345097 41.52501199 -20.74414794 39.84257179 -25.25 35.9375 C-25.971875 35.091875 -26.69375 34.24625 -27.4375 33.375 C-27.994375 32.75625 -28.55125 32.1375 -29.125 31.5 C-32.42095081 26.16369869 -32.8378004 20.93776053 -32.03515625 14.8671875 C-30.64588769 9.07402842 -27.55687946 4.95557799 -22.8125 1.4375 C-16.05787878 -2.69032408 -7.31249561 -3.36318977 0 0 Z M-18.4375 15.375 C-19.86787039 18.77212967 -19.54578396 20.08434306 -18.25 23.5625 C-16.05505002 26.99022793 -16.05505002 26.99022793 -12.4375 28.375 C-8.87342144 28.22649673 -6.98189387 27.78697374 -4.125 25.625 C-2.18363683 23.03651577 -1.51644107 21.6115838 -1.4375 18.375 C-3.05905629 14.88865399 -4.20203292 13.53197806 -7.4375 11.375 C-12.4903696 10.71593005 -14.93753399 11.67503594 -18.4375 15.375 Z " fill="#000000" transform="translate(266.4375,64.625)"/>
<path d="M0 0 C1.66323853 1.05761719 1.66323853 1.05761719 3 3 C3.29595299 5.56506815 3.41000755 7.88766985 3.38818359 10.453125 C3.39344055 11.20952271 3.39869751 11.96592041 3.40411377 12.74523926 C3.41732414 15.24703586 3.40857232 17.74819686 3.3984375 20.25 C3.40045794 21.98730593 3.40336914 23.72461104 3.40713501 25.46191406 C3.41155976 29.10359774 3.40512254 32.74506072 3.39111328 36.38671875 C3.37402122 41.05773484 3.38386161 45.72823384 3.40183067 50.39923096 C3.41266449 53.98685613 3.40922404 57.57435845 3.4014473 61.1619873 C3.39944417 62.88440003 3.4019085 64.60682387 3.40888596 66.32922363 C3.41649395 68.73540855 3.40490612 71.1407528 3.38818359 73.546875 C3.39729263 74.61766296 3.39729263 74.61766296 3.40658569 75.71008301 C3.36956071 78.581635 3.3173411 80.53888715 1.66323853 82.94238281 C-0.95518576 84.60738184 -2.98198376 84.37725203 -6 84 C-7.66323853 82.94238281 -7.66323853 82.94238281 -9 81 C-9.29595299 78.43493185 -9.41000755 76.11233015 -9.38818359 73.546875 C-9.39344055 72.79047729 -9.39869751 72.03407959 -9.40411377 71.25476074 C-9.41732414 68.75296414 -9.40857232 66.25180314 -9.3984375 63.75 C-9.40045794 62.01269407 -9.40336914 60.27538896 -9.40713501 58.53808594 C-9.41155976 54.89640226 -9.40512254 51.25493928 -9.39111328 47.61328125 C-9.37402122 42.94226516 -9.38386161 38.27176616 -9.40183067 33.60076904 C-9.41266449 30.01314387 -9.40922404 26.42564155 -9.4014473 22.8380127 C-9.39944417 21.11559997 -9.4019085 19.39317613 -9.40888596 17.67077637 C-9.41649395 15.26459145 -9.40490612 12.8592472 -9.38818359 10.453125 C-9.39425629 9.73926636 -9.40032898 9.02540771 -9.40658569 8.28991699 C-9.36956071 5.418365 -9.3173411 3.46111285 -7.66323853 1.05761719 C-5.04481424 -0.60738184 -3.01801624 -0.37725203 0 0 Z " fill="#000000" transform="translate(259,230)"/>
<path d="M0 0 C1.10150391 -0.00257813 2.20300781 -0.00515625 3.33789062 -0.0078125 C11.40643743 0.09076474 11.40643743 0.09076474 13.72436523 1.87695312 C15.377086 4.08811989 15.73674857 5.75639712 15.9375 8.5 C14.96019781 11.20637529 14.53237555 12.20256222 11.9375 13.5 C7.96390431 13.7687338 3.98166108 13.73157705 0 13.75 C-1.66579102 13.7809375 -1.66579102 13.7809375 -3.36523438 13.8125 C-4.42935547 13.81765625 -5.49347656 13.8228125 -6.58984375 13.828125 C-8.05538696 13.84214355 -8.05538696 13.84214355 -9.55053711 13.85644531 C-12.0625 13.5 -12.0625 13.5 -13.84594727 12.12792969 C-15.55461066 9.84148226 -15.99434345 8.36257507 -16.0625 5.5 C-12.8001547 -1.4145306 -6.66074819 -0.17209214 0 0 Z " fill="#000000" transform="translate(256.0625,401.5)"/>
</svg>
