<?xml version="1.0" encoding="UTF-8"?>
<svg version="1.1" xmlns="http://www.w3.org/2000/svg" width="568" height="528">
<path d="M0 0 C187.44 0 374.88 0 568 0 C568 174.24 568 348.48 568 528 C380.56 528 193.12 528 0 528 C0 353.76 0 179.52 0 0 Z " fill="#FEFEFE" transform="translate(0,0)"/>
<path d="M0 0 C0.33 0 0.66 0 1 0 C1 170.61 1 341.22 1 517 C0.34 517 -0.32 517 -1 517 C-2.5535676 513.8928648 -2.62635971 510.50918176 -3.015625 507.09375 C-3.11147385 506.2795459 -3.20732269 505.4653418 -3.30607605 504.62646484 C-3.62415065 501.91803311 -3.93700125 499.20902262 -4.25 496.5 C-4.47363983 494.58914586 -4.69768585 492.67833923 -4.92211914 490.76757812 C-5.38799448 486.79836238 -5.85211614 482.82894751 -6.31494141 478.859375 C-7.2418721 470.91863073 -8.18745498 462.98012626 -9.13439941 455.04174805 C-9.44124022 452.46863514 -9.74753939 449.89545824 -10.05371094 447.32226562 C-11.5663913 434.61297962 -13.08978546 421.9049904 -14.61602783 409.19732666 C-15.50353524 401.80707464 -16.39017891 394.41671893 -17.27685547 387.02636719 C-17.74169843 383.15197896 -18.20687983 379.27763164 -18.67236328 375.40332031 C-19.30402974 370.14407366 -19.93406455 364.88463371 -20.5625 359.625 C-20.66318787 358.78246674 -20.76387573 357.93993347 -20.86761475 357.0718689 C-22.620851 342.37896003 -24.29004073 327.67706206 -25.94451904 312.9727478 C-27.19888221 301.8370822 -28.46587944 290.70653122 -30.01220703 279.60668945 C-30.75679766 274.1970463 -31.34201128 268.77914597 -31.8984375 263.34765625 C-32.95641573 253.07410055 -34.24025574 242.83289319 -35.5446167 232.58813477 C-37.85749597 214.40847967 -40.08713125 196.22668436 -42 178 C-45.80390519 181.70672513 -49.31185382 185.57870831 -52.75 189.625 C-53.27585693 190.24109131 -53.80171387 190.85718262 -54.34350586 191.49194336 C-58.1969428 196.0203323 -61.97439687 200.60680699 -65.72265625 205.22265625 C-68.28204054 208.34396367 -70.88593791 211.4245003 -73.5 214.5 C-76.87283589 218.46903543 -80.21176645 222.46017021 -83.5 226.5 C-87.24852646 231.1053325 -91.07084246 235.64204444 -94.91625977 240.16625977 C-97.7954532 243.55954109 -100.63204237 246.98267786 -103.4375 250.4375 C-107.39443418 255.30049424 -111.46435942 260.05700203 -115.55615234 264.80615234 C-119.35163367 269.22031766 -123.05277913 273.70333198 -126.72265625 278.22265625 C-129.28204026 281.34396334 -131.88592494 284.42451134 -134.5 287.5 C-139.40726989 293.27427261 -144.2244347 299.11603189 -149 305 C-149.33 304.34 -149.66 303.68 -150 303 C-148.99921823 300.65376968 -147.93653048 298.43628984 -146.765625 296.17578125 C-146.4129657 295.47849411 -146.0603064 294.78120697 -145.69696045 294.06278992 C-144.55543442 291.80881187 -143.40331126 289.5604673 -142.25 287.3125 C-140.77214215 284.41473309 -139.29904619 281.51457481 -137.828125 278.61328125 C-137.44338013 277.85556427 -137.05863525 277.09784729 -136.66223145 276.31716919 C-133.59486593 270.24750966 -130.65137304 264.12357436 -127.734375 257.98046875 C-121.14361359 244.11136031 -114.23480134 230.4051649 -107.33398438 216.68847656 C-101.62637673 205.33697722 -95.95010995 193.97778072 -90.5 182.5 C-83.98995282 168.79002083 -77.15463569 155.24582042 -70.33398438 141.68847656 C-64.65775136 130.39937623 -59.01100803 119.10356069 -53.59375 107.6875 C-49.48539801 99.03267219 -45.26172468 90.4394667 -40.96875 81.875 C-40.66478302 81.26850616 -40.36081604 80.66201233 -40.04763794 80.03713989 C-37.55447002 75.0647149 -35.0560349 70.09494062 -32.55743408 65.12524414 C-30.37961762 60.79304226 -28.20393949 56.45977557 -26.03125 52.125 C-25.73012613 51.52441835 -25.42900227 50.92383671 -25.11875343 50.30505562 C-20.49899909 41.08331729 -15.98625551 31.81517011 -11.58496094 22.48718262 C-7.97462908 14.85220091 -4.07709624 7.39484791 0 0 Z " fill="#F47318" transform="translate(297,11)"/>
<path d="M0 0 C7.62932552 -0.63675978 13.78190954 -0.88686979 20.00390625 3.9765625 C26.63735971 10.70088519 33 21.30970929 33 31 C37.29 31 41.58 31 46 31 C46 34.96 46 38.92 46 43 C43.03 43 40.06 43 37 43 C37 65.44 37 87.88 37 111 C31.06 111 25.12 111 19 111 C19 88.56 19 66.12 19 43 C12.73 43.33 6.46 43.66 0 44 C0.969375 45.8975 1.93875 47.795 2.9375 49.75 C7.3741564 58.43451892 8.31921818 66.78901929 6.5390625 76.51953125 C4.87242853 81.64688164 2.34188857 84.10540762 -2 87 C-5.375 88.3125 -5.375 88.3125 -8 89 C-6.23535172 93.20154352 -3.34037223 96.49173662 -0.5 100 C5.48453608 107.39175258 5.48453608 107.39175258 7 111 C1.22586552 112.52657656 -4.39493751 113.58183191 -10 111 C-15.89372434 105.11297308 -19.58988667 97.28295259 -23.42285156 89.97119141 C-25.42518989 86.19898438 -27.64509146 82.60009097 -29.9375 79 C-30.9592797 77.33391335 -31.98058807 75.66753644 -33 74 C-30.525 71.03 -30.525 71.03 -28 68 C-24.63152172 69.40717816 -22.98056632 70.97758085 -20.875 73.9375 C-20.37742188 74.62714844 -19.87984375 75.31679688 -19.3671875 76.02734375 C-18.2268892 77.6726313 -17.11040551 79.33439173 -16 81 C-12.70924004 80.62095792 -12.70924004 80.62095792 -10 79 C-9.34969021 68.75762086 -11.72362288 61.08216834 -17.79296875 52.8125 C-19 51 -19 51 -19 49 C-15.7 47.35 -12.4 45.7 -9 44 C-20.22 43.67 -31.44 43.34 -43 43 C-43 65.44 -43 87.88 -43 111 C-48.61 111 -54.22 111 -60 111 C-60.33 101.43 -60.66 91.86 -61 82 C-64.96 83.485 -64.96 83.485 -69 85 C-72.703125 85.328125 -72.703125 85.328125 -76.25 85.25 C-78.02117187 85.22679687 -78.02117187 85.22679687 -79.828125 85.203125 C-83 85 -83 85 -85.3125 84.40234375 C-85.869375 84.26957031 -86.42625 84.13679688 -87 84 C-87.5775 84.433125 -88.155 84.86625 -88.75 85.3125 C-91.96738232 87.72553674 -95.08319384 88.15135866 -99 89 C-94.99416352 94.53652197 -90.72086492 99.7956471 -86.25244141 104.96191406 C-83 108.78319042 -83 108.78319042 -83 111 C-85.52810681 111.27314479 -88.02664787 111.46860383 -90.5625 111.625 C-91.61920898 111.75068359 -91.61920898 111.75068359 -92.69726562 111.87890625 C-95.11748931 111.9904373 -96.72763106 111.86778911 -99 111 C-101.91740558 108.01883019 -103.90188486 104.58632372 -106 101 C-107.12657087 99.22377704 -108.25545377 97.44901825 -109.38671875 95.67578125 C-110.49002999 93.88990202 -111.59029113 92.10213487 -112.6875 90.3125 C-113.24244141 89.41466797 -113.79738281 88.51683594 -114.36914062 87.59179688 C-117.33647052 82.77561934 -120.22759126 77.93097516 -123 73 C-121.02 71.35 -119.04 69.7 -117 68 C-112.78185183 71.9700218 -109.38772897 76.30840284 -106 81 C-102.70924004 80.62095792 -102.70924004 80.62095792 -100 79 C-98.83529429 67.2383817 -102.23017197 60.21448815 -109 51 C-109 50.34 -109 49.68 -109 49 C-105.37 47.35 -101.74 45.7 -98 44 C-108.23 43.67 -118.46 43.34 -129 43 C-129 51.91 -129 60.82 -129 70 C-131.64 68.35 -134.28 66.7 -137 65 C-139.89033954 63.66001151 -139.89033954 63.66001151 -142.625 62.75 C-143.50414062 62.43546875 -144.38328125 62.1209375 -145.2890625 61.796875 C-150.8076352 60.17470089 -156.21028381 59.79334695 -161.9375 59.75 C-162.61490234 59.729375 -163.29230469 59.70875 -163.99023438 59.6875 C-171.54474616 59.62955552 -177.05986494 62.455322 -182.5546875 67.37109375 C-184.60208278 69.67856356 -185.36081292 72.01712695 -186 75 C-185.40832031 74.79503906 -184.81664062 74.59007812 -184.20703125 74.37890625 C-183.41683594 74.10949219 -182.62664062 73.84007812 -181.8125 73.5625 C-181.03519531 73.29566406 -180.25789063 73.02882813 -179.45703125 72.75390625 C-167.23958254 69.00515013 -152.61188679 69.70995849 -141 75 C-138.00049025 76.72037997 -135.51679979 78.63728999 -133 81 C-132.40058594 81.51304687 -131.80117187 82.02609375 -131.18359375 82.5546875 C-127.64940799 85.98227369 -126.57585435 88.62148293 -126.375 93.5625 C-126.73066761 99.60057801 -128.72271201 102.93010788 -133.1875 106.98828125 C-136.44746238 109.32005989 -139.51958443 110.47387887 -143.3125 111.75 C-144.28026367 112.08064453 -144.28026367 112.08064453 -145.26757812 112.41796875 C-146.84197484 112.95442985 -148.42058004 113.47851357 -150 114 C-148.3291771 117.79148274 -145.89029808 120.92940296 -143.375 124.1875 C-139 129.87097393 -139 129.87097393 -139 131 C-150.65512268 132.3112013 -150.65512268 132.3112013 -156 131 C-159.8293949 127.89595009 -161.81908963 124.3677151 -164 120 C-164.55945313 119.09636719 -165.11890625 118.19273437 -165.6953125 117.26171875 C-167 115 -167 115 -167 113 C-167.99 112.95875 -168.98 112.9175 -170 112.875 C-177.4603422 111.80276458 -182.65322334 105.70514436 -187 100 C-185.27136297 98.89500435 -183.54206612 97.79104086 -181.8125 96.6875 C-180.36810547 95.76517578 -180.36810547 95.76517578 -178.89453125 94.82421875 C-176.28365697 93.17876897 -173.6530398 91.57630335 -171 90 C-170.82984375 90.67546875 -170.6596875 91.3509375 -170.484375 92.046875 C-168.74822118 98.94675851 -168.74822118 98.94675851 -164 104 C-158.50467821 105.7335028 -152.29200947 106.00275414 -147 103.6875 C-144.78264147 101.97536603 -144.78264147 101.97536603 -143 99 C-143.20056263 96.32583161 -143.52348221 94.60975467 -145.1875 92.48046875 C-152.85482898 86.21771512 -164.65526975 86.25371946 -174 87 C-179.08670284 87.67947379 -184.03178722 88.72932807 -189 90 C-194.2142645 83.31922361 -193.86325103 76.19643505 -193 68 C-191.17622466 61.08260358 -185.97985926 55.56019002 -180.05078125 51.74609375 C-169.33352885 46.0400517 -158.57553406 45.86845455 -147 49 C-147 47.02 -147 45.04 -147 43 C-164.82 43 -182.64 43 -201 43 C-201 39.04 -201 35.08 -201 31 C-127.41 30.67 -53.82 30.34 22 30 C20.35 26.7 18.7 23.4 17 20 C16.67 19.01 16.34 18.02 16 17 C13.57616923 15.83046584 13.57616923 15.83046584 11 15 C10.01 14.505 10.01 14.505 9 14 C6.62876754 13.76970044 4.25258057 13.58880058 1.875 13.4375 C0.59367188 13.35371094 -0.68765625 13.26992188 -2.0078125 13.18359375 C-2.99523437 13.12300781 -3.98265625 13.06242187 -5 13 C-4.42655667 9.55330375 -3.56138422 6.77811835 -1.9375 3.6875 C-1.57527344 2.99011719 -1.21304688 2.29273438 -0.83984375 1.57421875 C-0.56269531 1.05472656 -0.28554687 0.53523438 0 0 Z " fill="#F4751B" transform="translate(209,299)"/>
<path d="M0 0 C82.83 0 165.66 0 251 0 C251 3.63 251 7.26 251 11 C198.86 11.33 146.72 11.66 93 12 C96.96 13.98 100.92 15.96 105 18 C105 21 105 21 102.375 23.91796875 C101.25750594 25.01550756 100.13214357 26.10507895 99 27.1875 C98.14148438 28.02571289 98.14148438 28.02571289 97.265625 28.88085938 C95.85037212 30.26073093 94.42602845 31.63126734 93 33 C86.85989319 30.83290348 81.02762778 28.19958562 75.1484375 25.40234375 C70.1431466 23.17293998 65.5321972 21.17605574 60 22 C56.13436339 25.12932487 53.70935449 28.87309295 51 33 C51.93199219 32.97679687 52.86398437 32.95359375 53.82421875 32.9296875 C69.85427758 32.70277059 85.30651541 33.9942825 97.57421875 45.44921875 C100.45167644 48.5789467 100.40896254 51.48434817 100.32421875 55.578125 C99.13314858 64.47527564 90.24305998 71.25947735 84 77 C80.79954524 79.13363651 80.01370564 79.24672228 76.3449707 79.22705078 C75.40422195 79.22689972 74.46347321 79.22674866 73.49421692 79.22659302 C72.48163315 79.21627045 71.46904938 79.20594788 70.42578125 79.1953125 C68.86732735 79.19106766 68.86732735 79.19106766 67.27738953 79.18673706 C63.95564303 79.17553282 60.63416515 79.15042764 57.3125 79.125 C55.06185285 79.11497052 52.81120148 79.10584462 50.56054688 79.09765625 C45.04027278 79.0755927 39.52015558 79.04211271 34 79 C35.41678511 77.3018675 36.84768511 75.62015732 38.302948 73.95474243 C39.36301302 72.73371085 40.39956566 71.49137231 41.39846802 70.21981812 C43.44696206 67.81292033 44.97837384 66.24708781 48.10443115 65.49102783 C50.61143259 65.30659046 53.04261857 65.3242174 55.5546875 65.4140625 C56.90700974 65.42679703 56.90700974 65.42679703 58.28665161 65.43978882 C61.15067847 65.47322974 64.01183233 65.54848846 66.875 65.625 C68.82287584 65.65511178 70.77079607 65.68248546 72.71875 65.70703125 C77.48026437 65.77299023 82.23964606 65.87644496 87 66 C82.10109765 58.52655198 76.59426006 52.61888545 67.61328125 50.4140625 C55.90784788 48.25738719 43.86484817 48.34117506 32 48 C36.03110535 33.72207362 42.02557131 23.03213699 54.84765625 15.0078125 C57.75593152 13.64604295 60.91225311 12.8822134 64 12 C32.32 11.505 32.32 11.505 0 11 C0 7.37 0 3.74 0 0 Z " fill="#1089D3" transform="translate(311,331)"/>
<path d="M0 0 C7.010834 -0.07618093 14.02156089 -0.12865495 21.03271484 -0.16479492 C23.41687001 -0.179864 25.80099753 -0.20032291 28.18505859 -0.22631836 C31.61562937 -0.26278337 35.045833 -0.27974552 38.4765625 -0.29296875 C40.07064438 -0.31619453 40.07064438 -0.31619453 41.69692993 -0.33988953 C47.2164875 -0.34113949 51.26879296 -0.18891931 56 3 C60.20571726 7.43305333 61.12957865 10.79674142 61.11352539 16.76855469 C61.11344986 17.70922791 61.11337433 18.64990112 61.11329651 19.61907959 C61.10813522 20.62650208 61.10297394 21.63392456 61.09765625 22.671875 C61.0962413 23.70942932 61.09482635 24.74698364 61.09336853 25.815979 C61.08777447 29.12734876 61.07522303 32.43865071 61.0625 35.75 C61.05748423 37.99609277 61.05292146 40.24218661 61.04882812 42.48828125 C61.03780699 47.9922106 61.02107474 53.49610046 61 59 C53.97081588 59.05073645 46.94167905 59.08574896 39.91235352 59.10986328 C37.52138504 59.11991686 35.13042885 59.13356164 32.73950195 59.15087891 C29.3015642 59.1751551 25.86378912 59.18648965 22.42578125 59.1953125 C21.35789871 59.20563507 20.29001617 59.21595764 19.18977356 59.22659302 C18.18911362 59.22674408 17.18845367 59.22689514 16.1574707 59.22705078 C15.28032913 59.231492 14.40318756 59.23593323 13.49946594 59.24050903 C9.31505302 58.83786738 6.70158733 57.74167803 3.8125 54.6875 C1.02474222 50.55392812 -0.25395671 47.10897015 -0.22705078 42.11791992 C-0.22689972 41.17732224 -0.22674866 40.23672455 -0.22659302 39.2676239 C-0.21627045 38.2653627 -0.20594788 37.2631015 -0.1953125 36.23046875 C-0.1924826 35.19432938 -0.18965271 34.15819 -0.18673706 33.09065247 C-0.17556454 29.78948293 -0.15046505 26.48858719 -0.125 23.1875 C-0.11496643 20.94596747 -0.10584124 18.70443067 -0.09765625 16.46289062 C-0.07563478 10.9751674 -0.04218621 5.48760326 0 0 Z " fill="#1189D3" transform="translate(494,351)"/>
<path d="M0 0 C5.61 0 11.22 0 17 0 C17.495 6.93 17.495 6.93 18 14 C18.94875 13.113125 19.8975 12.22625 20.875 11.3125 C28.12888061 5.07800384 36.21527362 1.63262744 45.7578125 1.7890625 C50.64907855 2.24921645 53.7087515 4.44588138 56.8125 8.0625 C59.82972351 12.11420014 60.85761069 14.93711995 60.89453125 19.98046875 C58.890374 26.74559345 52.23255812 31.56657095 47 36 C46.67 36 46.34 36 46 36 C45.97421875 35.34773438 45.9484375 34.69546875 45.921875 34.0234375 C45.55209936 28.32553098 45.03071841 24.34893302 41 20 C32.73454651 15.13796854 25.95017754 16.76245561 17 19 C17 32.2 17 45.4 17 59 C11.39 59 5.78 59 0 59 C0 39.53 0 20.06 0 0 Z " fill="#1189D3" transform="translate(425,351)"/>
<path d="M0 0 C10.75482601 2.08797598 21.48864779 4.26560761 32.1875 6.625 C33.63020264 6.93377075 33.63020264 6.93377075 35.10205078 7.2487793 C35.99005371 7.44769775 36.87805664 7.64661621 37.79296875 7.8515625 C38.5821167 8.02510254 39.37126465 8.19864258 40.18432617 8.37744141 C42 9 42 9 43 11 C41.5729767 14.97985127 39.63703524 18.75129936 37.8125 22.5625 C37.0690332 24.18188477 37.0690332 24.18188477 36.31054688 25.83398438 C35.82263672 26.85943359 35.33472656 27.88488281 34.83203125 28.94140625 C34.38577393 29.88701416 33.9395166 30.83262207 33.47973633 31.80688477 C32 34 32 34 30.22412109 34.90136719 C27.14916362 35.03773193 24.56705027 34.38715198 21.58203125 33.63671875 C20.32712891 33.32669922 19.07222656 33.01667969 17.77929688 32.69726562 C16.45694825 32.36100333 15.1346831 32.02441256 13.8125 31.6875 C12.50998547 31.36174988 11.20725261 31.03687146 9.90429688 30.71289062 C7.40128509 30.09001544 4.89882052 29.4649362 2.39697266 28.83740234 C-1.72213769 27.82198273 -5.85279109 26.89289634 -10 26 C-11.01615584 23.35853389 -11.08324182 22.22974834 -10.10375977 19.52636719 C-9.63768311 18.62563477 -9.17160645 17.72490234 -8.69140625 16.796875 C-8.19189453 15.8171875 -7.69238281 14.8375 -7.17773438 13.828125 C-6.64470703 12.81234375 -6.11167969 11.7965625 -5.5625 10.75 C-5.03333984 9.71875 -4.50417969 8.6875 -3.95898438 7.625 C-2.64991455 5.07762089 -1.32998645 2.53650356 0 0 Z " fill="#1189D3" transform="translate(324,132)"/>
<path d="M0 0 C6.00158157 1.32627543 12.00126657 2.66090359 18 4 C18.98323242 4.21914062 19.96646484 4.43828125 20.97949219 4.6640625 C23.98699341 5.33561234 26.99359285 6.01107078 30 6.6875 C30.96115723 6.90172607 31.92231445 7.11595215 32.91259766 7.33666992 C33.80769043 7.53881104 34.7027832 7.74095215 35.625 7.94921875 C36.42164063 8.12799561 37.21828125 8.30677246 38.0390625 8.4909668 C40 9 40 9 42 10 C40.33913088 15.56664924 37.88928264 20.65786353 35.375 25.875 C34.95476562 26.75414063 34.53453125 27.63328125 34.1015625 28.5390625 C33.0708308 30.69422878 32.03690574 32.84779922 31 35 C25.41092948 34.38113146 20.0342186 33.43532938 14.5625 32.15234375 C13.79695801 31.97619034 13.03141602 31.80003693 12.24267578 31.61854553 C9.82757008 31.06192949 7.41378426 30.49981572 5 29.9375 C3.35034499 29.55627448 1.7006061 29.17541171 0.05078125 28.79492188 C-3.96712683 27.8674685 -7.98386184 26.9350866 -12 26 C-10.79022619 22.1763374 -9.42879338 18.61582284 -7.6171875 15.0390625 C-7.17246094 14.15605469 -6.72773437 13.27304688 -6.26953125 12.36328125 C-5.80933594 11.45964844 -5.34914062 10.55601563 -4.875 9.625 C-4.40707031 8.69816406 -3.93914062 7.77132812 -3.45703125 6.81640625 C-2.30830944 4.54240594 -1.15588119 2.27036718 0 0 Z " fill="#1189D3" transform="translate(134,88)"/>
<path d="M0 0 C14.14842645 2.80657234 28.07323831 6.25012595 42 10 C41.07867523 15.36797581 38.98462883 19.84700823 36.6875 24.75 C36.29626953 25.62527344 35.90503906 26.50054687 35.50195312 27.40234375 C35.11330078 28.23378906 34.72464844 29.06523437 34.32421875 29.921875 C33.97447998 30.68081055 33.62474121 31.43974609 33.2644043 32.22167969 C32 34 32 34 30.20385742 34.82421875 C27.3919694 35.04849696 25.15686333 34.55590202 22.4140625 33.890625 C21.32399902 33.63168457 20.23393555 33.37274414 19.11083984 33.10595703 C17.9605127 32.82349121 16.81018555 32.54102539 15.625 32.25 C13.27622935 31.68931735 10.92727219 31.12941541 8.578125 30.5703125 C7.44697266 30.29864258 6.31582031 30.02697266 5.15039062 29.74707031 C-0.54485402 28.39652408 -6.26878819 27.1879239 -12 26 C-10.32067048 20.1899059 -7.60791608 14.99131421 -4.875 9.625 C-4.40707031 8.69816406 -3.93914062 7.77132812 -3.45703125 6.81640625 C-2.30830944 4.54240594 -1.15588119 2.27036718 0 0 Z " fill="#1189D3" transform="translate(376,144)"/>
<path d="M0 0 C2.40220965 0.48044193 4.75134393 1.02655193 7.125 1.625 C15.55287646 3.68838619 24.01748583 5.54140631 32.50634766 7.33642578 C33.45171387 7.53864746 34.39708008 7.74086914 35.37109375 7.94921875 C36.21599365 8.12799561 37.06089355 8.30677246 37.93139648 8.4909668 C40 9 40 9 42 10 C40.33913088 15.56664924 37.88928264 20.65786353 35.375 25.875 C34.95476562 26.75414063 34.53453125 27.63328125 34.1015625 28.5390625 C33.0708308 30.69422878 32.03690574 32.84779922 31 35 C23.2760318 34.2960434 15.88559061 32.37203715 8.375 30.5 C5.80016988 29.86171249 3.22447832 29.22715921 0.6484375 28.59375 C-0.48416504 28.31208984 -1.61676758 28.03042969 -2.78369141 27.74023438 C-5.84530184 27.03560383 -8.89616885 26.48085047 -12 26 C-11.40589062 22.36592335 -10.40973027 19.45325629 -8.75 16.171875 C-8.3065625 15.29015625 -7.863125 14.4084375 -7.40625 13.5 C-6.9421875 12.5925 -6.478125 11.685 -6 10.75 C-5.5359375 9.82703125 -5.071875 8.9040625 -4.59375 7.953125 C-1.15438988 1.15438988 -1.15438988 1.15438988 0 0 Z " fill="#128AD3" transform="translate(186,100)"/>
<path d="M0 0 C5.61 0 11.22 0 17 0 C17 19.47 17 38.94 17 59 C11.39 59 5.78 59 0 59 C0 39.53 0 20.06 0 0 Z " fill="#128AD3" transform="translate(320,351)"/>
<path d="M0 0 C9.9 0 19.8 0 30 0 C30 8.91 30 17.82 30 27 C20.1 27 10.2 27 0 27 C0 18.09 0 9.18 0 0 Z " fill="#FBFDFE" transform="translate(509,367)"/>
<path d="M0 0 C10.23 0 20.46 0 31 0 C31.9375 21.42857143 31.9375 21.42857143 28.3125 26 C22.60159855 30.86830943 14.45468817 34 7 34 C7.04640625 32.82824219 7.0928125 31.65648437 7.140625 30.44921875 C7.46709008 18.61454456 6.19527189 10.32545315 0 0 Z " fill="#FEFDFB" transform="translate(118,342)"/>
<path d="M0 0 C2.875 1.5 2.875 1.5 5 4 C5.72947266 7.14732157 5.6844417 9.84708002 5 13 C3.0125694 16.0432531 1.67958873 17.62073803 -1.9375 18.4375 C-5.77726765 18.67021319 -7.63711804 18.23162678 -10.9375 16.125 C-13.57755824 13.40493999 -13.94363945 12.49785154 -14.375 8.6875 C-14 5 -14 5 -11.6875 2.125 C-7.52306303 -1.16781063 -5.03894151 -1.31012479 0 0 Z " fill="#138AD4" transform="translate(333,307)"/>
</svg>
