<?xml version="1.0" encoding="UTF-8"?>
<svg version="1.1" xmlns="http://www.w3.org/2000/svg" width="512" height="512">
<path d="M0 0 C0.90781723 -0.0127597 1.81563446 -0.02551941 2.7509613 -0.03866577 C4.21820396 -0.04200424 4.21820396 -0.04200424 5.71508789 -0.04541016 C7.22601768 -0.05539536 7.22601768 -0.05539536 8.76747131 -0.06558228 C10.8983477 -0.07570991 13.02925582 -0.08039926 15.16015625 -0.08007812 C18.42183614 -0.08445133 21.68216311 -0.12077054 24.94360352 -0.15869141 C27.01326034 -0.16455948 29.0829236 -0.16852893 31.15258789 -0.17041016 C32.12872543 -0.18478119 33.10486298 -0.19915222 34.11058044 -0.21395874 C40.81879105 -0.16864727 40.81879105 -0.16864727 44.09521484 2.0390625 C45.60567662 4.4594758 46.0964535 5.94791011 46.32836914 8.77490234 C46.40571289 9.62826172 46.48305664 10.48162109 46.56274414 11.36083984 C46.62461914 12.24513672 46.68649414 13.12943359 46.75024414 14.04052734 C46.82758789 14.90935547 46.90493164 15.77818359 46.98461914 16.67333984 C47.42357558 21.89378612 47.57332351 27.05317227 47.50024414 32.29052734 C48.32202148 32.38527344 48.32202148 32.38527344 49.16040039 32.48193359 C55.74869045 33.49963694 61.2214343 35.80078013 67.14501953 38.72631836 C68.91977808 39.60227417 70.70982579 40.44704136 72.50024414 41.29052734 C73.49411133 41.80873047 74.48797852 42.32693359 75.51196289 42.86083984 C78.37447037 43.57366556 78.37447037 43.57366556 80.19897461 42.38134766 C82.09843154 40.90381799 83.82680386 39.33187956 85.56274414 37.66552734 C86.76152183 36.56869093 87.96073271 35.47232776 89.16040039 34.37646484 C89.72944092 33.84802979 90.29848145 33.31959473 90.88476562 32.77514648 C96.66394762 27.46409832 96.66394762 27.46409832 100.81274414 26.60302734 C106.20102518 27.60762211 108.71788338 30.47516169 112.50024414 34.29052734 C113.39356445 35.15935547 114.28688477 36.02818359 115.20727539 36.92333984 C119.97949084 41.58890445 124.62216272 46.34831209 128.92602539 51.45458984 C130.00700021 52.71528007 131.13292285 53.93836829 132.29321289 55.12646484 C132.8565332 55.71685547 133.41985352 56.30724609 134.00024414 56.91552734 C134.50555664 57.42341797 135.01086914 57.93130859 135.53149414 58.45458984 C137.06624267 61.36318585 136.40811878 63.19602699 135.50024414 66.29052734 C133.64477539 69.03662109 133.64477539 69.03662109 131.31274414 71.72802734 C130.10424805 73.15308594 130.10424805 73.15308594 128.87133789 74.60693359 C127.44804707 76.21780805 126.00782132 77.81427726 124.53540039 79.38037109 C122.67559096 81.32108841 122.67559096 81.32108841 120.50024414 84.29052734 C120.77680886 89.92425301 124.15332528 95.32923171 126.52954102 100.34521484 C128.95551983 105.61713934 130.41484942 110.58510171 131.50024414 116.29052734 C132.75579102 116.33951172 134.01133789 116.38849609 135.30493164 116.43896484 C155.61801604 117.31094511 155.61801604 117.31094511 160.50024414 119.29052734 C162.61595496 122.46409357 162.75445766 123.2626835 162.77490234 126.89794922 C162.78443436 127.82901489 162.79396637 128.76008057 162.80378723 129.71936035 C162.80242012 131.22411926 162.80242012 131.22411926 162.80102539 132.75927734 C162.80531052 133.79113159 162.80959564 134.82298584 162.81401062 135.8861084 C162.819755 138.06827053 162.8202534 140.25045181 162.81591797 142.43261719 C162.81275644 145.77751171 162.8362218 149.12152337 162.86157227 152.46630859 C162.86384502 154.58479706 162.86454887 156.70328791 162.86352539 158.82177734 C162.87273514 159.82494995 162.88194489 160.82812256 162.89143372 161.86169434 C162.88209053 163.25829285 162.88209053 163.25829285 162.87255859 164.68310547 C162.87318802 165.50234497 162.87381744 166.32158447 162.87446594 167.16564941 C162.40808693 169.81380744 161.62389374 170.68386133 159.50024414 172.29052734 C156.68115234 172.90649414 156.68115234 172.90649414 153.30102539 173.23974609 C152.0925293 173.36542969 150.8840332 173.49111328 149.63891602 173.62060547 C147.74496094 173.7975293 147.74496094 173.7975293 145.81274414 173.97802734 C144.53850586 174.10757813 143.26426758 174.23712891 141.95141602 174.37060547 C138.80201022 174.68908471 135.65189218 174.99520871 132.50024414 175.29052734 C132.13672852 176.30630859 131.77321289 177.32208984 131.39868164 178.36865234 C130.89258711 179.75990349 130.38464068 181.15048181 129.87524414 182.54052734 C129.6103418 183.26473877 129.34543945 183.9889502 129.07250977 184.73510742 C126.97032094 190.34609672 124.40486398 195.54404149 121.40649414 200.73974609 C120.28501318 203.22237877 120.28501318 203.22237877 120.93383789 205.64208984 C123.20719054 209.48581328 126.08061054 212.66846895 129.06274414 215.97802734 C130.25328206 217.31372176 131.44216657 218.65089229 132.62915039 219.98974609 C133.41914429 220.868927 133.41914429 220.868927 134.22509766 221.76586914 C135.95423451 223.83335136 136.49201854 225.24734292 137.00024414 227.91552734 C135.71945518 236.56085283 124.98934486 244.01965274 118.93798828 250.09301758 C117.29850487 251.74235217 115.66998621 253.40206213 114.04125977 255.06201172 C112.99308868 256.11670156 111.94428346 257.17076166 110.89477539 258.22412109 C110.41240921 258.71883408 109.93004303 259.21354706 109.43305969 259.72325134 C106.94563774 262.19436 105.08429104 264.01123217 101.50024414 264.29052734 C97.2881243 263.12011601 94.48521595 260.8464802 91.18774414 258.04052734 C86.74525218 254.2790013 82.17969962 250.74871054 77.50024414 247.29052734 C76.71544678 247.67591675 76.71544678 247.67591675 75.91479492 248.0690918 C73.48869362 249.25491887 71.057067 250.42898113 68.62524414 251.60302734 C67.80282227 252.00714844 66.98040039 252.41126953 66.13305664 252.82763672 C60.38474825 255.58951927 54.65858735 257.63806868 48.50024414 259.29052734 C48.4303125 260.08749023 48.36038086 260.88445312 48.28833008 261.70556641 C47.96077792 265.31917238 47.60584019 268.92957779 47.25024414 272.54052734 C47.14067383 273.79478516 47.03110352 275.04904297 46.91821289 276.34130859 C46.79575195 277.54658203 46.67329102 278.75185547 46.54711914 279.99365234 C46.44238281 281.10385742 46.33764648 282.2140625 46.22973633 283.35791016 C45.31116955 287.0506224 44.74211962 288.24487311 41.50024414 290.29052734 C37.97604298 290.86808135 34.4980733 290.82674142 30.93383789 290.78662109 C29.90339859 290.78807632 28.87295929 290.78953156 27.81129456 290.79103088 C25.63507252 290.78937219 23.45883873 290.77781425 21.28271484 290.75708008 C17.9465166 290.72810354 14.61190492 290.73647653 11.27563477 290.74951172 C9.16169473 290.74327502 7.04775972 290.73488462 4.93383789 290.72412109 C3.93380234 290.72705673 2.93376678 290.72999237 1.90342712 290.73301697 C0.97558914 290.72033279 0.04775116 290.70764862 -0.90820312 290.69458008 C-1.72442642 290.68917709 -2.54064972 290.68377411 -3.38160706 290.6782074 C-6.01780201 290.19571051 -6.89599984 289.40610875 -8.49975586 287.29052734 C-9.11572266 284.47143555 -9.11572266 284.47143555 -9.44897461 281.09130859 C-9.6375 279.27856445 -9.6375 279.27856445 -9.82983398 277.42919922 C-10.00675781 275.53524414 -10.00675781 275.53524414 -10.18725586 273.60302734 C-10.31680664 272.32878906 -10.44635742 271.05455078 -10.57983398 269.74169922 C-10.89831322 266.59229342 -11.20443723 263.44217538 -11.49975586 260.29052734 C-12.25289063 259.97962158 -13.00602539 259.66871582 -13.78198242 259.34838867 C-20.31080712 256.64240313 -26.80048284 253.86813524 -33.24975586 250.97802734 C-34.45631836 250.43952148 -34.45631836 250.43952148 -35.68725586 249.89013672 C-37.62534486 249.02491842 -39.56264096 248.15792435 -41.49975586 247.29052734 C-42.36858398 248.02658203 -43.23741211 248.76263672 -44.13256836 249.52099609 C-45.2966205 250.50668541 -46.46068359 251.4923618 -47.62475586 252.47802734 C-48.4794043 253.2021582 -48.4794043 253.2021582 -49.35131836 253.94091797 C-50.50194143 254.915025 -51.65727968 255.88358828 -52.81713867 256.84667969 C-54.50302733 258.25761431 -54.50302733 258.25761431 -55.98706055 259.76953125 C-58.73865054 262.4102752 -60.41977386 263.27878427 -64.22119141 263.83691406 C-69.69330306 263.66763364 -72.41137958 260.46478343 -76.02709961 256.68505859 C-76.70148575 256.00883957 -77.37587189 255.33262054 -78.07069397 254.63591003 C-79.48767868 253.20687507 -80.89496276 251.76816358 -82.29296875 250.32055664 C-84.43372244 248.10668145 -86.60487778 245.92660993 -88.78295898 243.74951172 C-90.15790915 242.35490125 -91.53102139 240.95847586 -92.90209961 239.56005859 C-93.54992905 238.90777786 -94.19775848 238.25549713 -94.86521912 237.58345032 C-100.46965169 231.7385424 -100.46965169 231.7385424 -100.49975586 227.29052734 C-98.65689368 223.36980714 -95.8992158 220.2202595 -93.12475586 216.91552734 C-89.69968021 212.83133061 -86.56074018 208.64945554 -83.49975586 204.29052734 C-84.03084961 203.27474609 -84.56194336 202.25896484 -85.10913086 201.21240234 C-95.49975586 181.06460727 -95.49975586 181.06460727 -95.49975586 174.29052734 C-96.77850586 174.33177734 -98.05725586 174.37302734 -99.37475586 174.41552734 C-104.59641892 174.40801416 -109.74590988 173.995813 -114.93725586 173.47802734 C-115.7305127 173.40793457 -116.52376953 173.3378418 -117.34106445 173.265625 C-122.99751342 172.65866828 -122.99751342 172.65866828 -125.2169342 171.03184509 C-126.86767426 168.79111043 -126.88547771 167.46820176 -126.90380859 164.69897461 C-126.91649277 163.77113663 -126.92917694 162.84329865 -126.94224548 161.88734436 C-126.93930984 160.88730881 -126.93637421 159.88727325 -126.93334961 158.85693359 C-126.93859146 157.82745102 -126.94383331 156.79796844 -126.94923401 155.73728943 C-126.95565959 153.55932518 -126.95431031 151.38132625 -126.94580078 149.20336914 C-126.93729701 145.86916309 -126.96603593 142.53667315 -126.99780273 139.20263672 C-126.99941495 137.08740286 -126.99883683 134.97216596 -126.99584961 132.85693359 C-127.00708359 131.85892227 -127.01831757 130.86091095 -127.02989197 129.83265686 C-126.96126472 123.02190914 -126.96126472 123.02190914 -124.86230469 119.69555664 C-121.89738344 117.93229098 -119.63648273 117.56757705 -116.20288086 117.24365234 C-114.99760742 117.12119141 -113.79233398 116.99873047 -112.55053711 116.87255859 C-110.66915039 116.70820313 -110.66915039 116.70820313 -108.74975586 116.54052734 C-107.4800293 116.41548828 -106.21030273 116.29044922 -104.90209961 116.16162109 C-101.76915123 115.85539306 -98.63556037 115.5656869 -95.49975586 115.29052734 C-95.13624023 114.21416016 -94.77272461 113.13779297 -94.39819336 112.02880859 C-91.24917811 102.83626072 -87.78366568 94.02544985 -83.49975586 85.29052734 C-84.06823242 84.67306641 -84.63670898 84.05560547 -85.22241211 83.41943359 C-89.08082435 79.18741883 -92.8950771 74.92954331 -96.49975586 70.47802734 C-97.05663086 69.79095703 -97.61350586 69.10388672 -98.18725586 68.39599609 C-99.74445905 65.89798265 -100.35527508 64.23883823 -100.49975586 61.29052734 C-98.20325052 56.59900705 -94.72520392 53.14506641 -91.10913086 49.45849609 C-90.48629211 48.82188553 -89.86345337 48.18527496 -89.22174072 47.52937317 C-87.9066779 46.19111411 -86.58864018 44.85577265 -85.26782227 43.52319336 C-83.25431664 41.48264937 -81.26607876 39.41940026 -79.27709961 37.35498047 C-77.99344062 36.05467255 -76.70833156 34.7557942 -75.42163086 33.45849609 C-74.83283142 32.83984177 -74.24403198 32.22118744 -73.63739014 31.58378601 C-70.57783802 28.55602432 -69.17434193 27.38592694 -64.78808594 26.765625 C-61.7050371 27.25775916 -60.30029038 27.56263468 -57.96459961 29.52099609 C-57.38258789 29.99472656 -56.80057617 30.46845703 -56.20092773 30.95654297 C-55.61891602 31.45863281 -55.0369043 31.96072266 -54.43725586 32.47802734 C-53.85137695 32.96078125 -53.26549805 33.44353516 -52.66186523 33.94091797 C-50.92731761 35.37514437 -49.2130114 36.83097775 -47.49975586 38.29052734 C-46.35643196 39.2464004 -45.21197729 40.20092328 -44.06616211 41.15380859 C-43.21924805 41.85892578 -42.37233398 42.56404297 -41.49975586 43.29052734 C-40.30479492 42.74783203 -39.10983398 42.20513672 -37.87866211 41.64599609 C-36.27329597 40.92311193 -34.66782138 40.20046857 -33.06225586 39.47802734 C-32.27915039 39.12160156 -31.49604492 38.76517578 -30.68920898 38.39794922 C-17.0735804 32.29052734 -17.0735804 32.29052734 -11.49975586 32.29052734 C-11.4245874 31.30040649 -11.4245874 31.30040649 -11.34790039 30.2902832 C-11.1142845 27.26890396 -10.86961093 24.24851569 -10.62475586 21.22802734 C-10.54612305 20.1896875 -10.46749023 19.15134766 -10.38647461 18.08154297 C-9.93396081 12.59916429 -9.49889256 7.44214884 -7.49975586 2.29052734 C-4.35732481 0.19557331 -3.58805983 0.03425841 0 0 Z M4.50024414 13.29052734 C3.58484924 16.03671204 3.26148227 18.14292647 3.03540039 21.00146484 C2.91841797 22.37431641 2.91841797 22.37431641 2.79907227 23.77490234 C2.64218038 25.69391055 2.48850668 27.61318473 2.33813477 29.53271484 C1.46097197 39.68783532 1.46097197 39.68783532 -0.49975586 42.29052734 C-3.619176 43.77500505 -6.86864807 44.66847687 -10.18725586 45.60302734 C-24.87985993 49.91170935 -24.87985993 49.91170935 -37.49975586 58.29052734 C-44.13374988 59.07226286 -44.13374988 59.07226286 -47.38793945 57.20996094 C-49.24432111 55.70906746 -50.97086184 54.13701688 -52.68725586 52.47802734 C-53.86527828 51.38497703 -55.04620872 50.29505128 -56.23022461 49.20849609 C-56.99435669 48.47796021 -56.99435669 48.47796021 -57.77392578 47.73266602 C-59.92406835 45.86022896 -59.92406835 45.86022896 -64.49975586 43.29052734 C-70.76975586 49.56052734 -77.03975586 55.83052734 -83.49975586 62.29052734 C-82.01964943 65.2507402 -81.03529014 67.03646785 -78.96850586 69.41943359 C-78.24727539 70.25958008 -78.24727539 70.25958008 -77.51147461 71.11669922 C-77.01260742 71.6896875 -76.51374023 72.26267578 -75.99975586 72.85302734 C-68.64601816 81.35638036 -68.64601816 81.35638036 -68.08569336 84.93505859 C-68.66457216 89.62616133 -70.77738922 92.93221053 -73.12475586 96.97802734 C-77.34697182 104.54373154 -80.33443432 111.96612106 -82.60961914 120.32250977 C-84.2197757 126.10387391 -84.2197757 126.10387391 -87.49975586 128.29052734 C-90.22705078 128.79296875 -90.22705078 128.79296875 -93.48022461 129.14208984 C-94.52847412 129.25891113 -95.57672363 129.37573242 -96.65673828 129.49609375 C-98.65184448 129.70371338 -98.65184448 129.70371338 -100.68725586 129.91552734 C-104.91538086 130.36927734 -109.14350586 130.82302734 -113.49975586 131.29052734 C-113.49975586 140.53052734 -113.49975586 149.77052734 -113.49975586 159.29052734 C-111.29288086 159.57927734 -109.08600586 159.86802734 -106.81225586 160.16552734 C-99.6919968 161.10629511 -92.59345574 162.16606227 -85.49975586 163.29052734 C-83.92446189 167.44702588 -82.37925349 171.60689708 -80.92163086 175.80615234 C-77.91005639 184.38183256 -74.87978953 192.1668289 -69.78491211 199.74755859 C-68.18778892 202.90782363 -68.01274351 204.78955177 -68.49975586 208.29052734 C-70.00366211 210.74755859 -70.00366211 210.74755859 -72.06225586 213.10302734 C-72.78541992 213.95251953 -73.50858398 214.80201172 -74.25366211 215.67724609 C-74.99487305 216.53962891 -75.73608398 217.40201172 -76.49975586 218.29052734 C-77.84338085 219.99077804 -79.17755712 221.6985617 -80.49975586 223.41552734 C-81.07725586 224.16060547 -81.65475586 224.90568359 -82.24975586 225.67333984 C-82.66225586 226.20701172 -83.07475586 226.74068359 -83.49975586 227.29052734 C-82.07329806 230.54919095 -80.33271424 232.69301274 -77.80444336 235.18115234 C-76.73129883 236.24462891 -76.73129883 236.24462891 -75.63647461 237.32958984 C-74.89010742 238.05919922 -74.14374023 238.78880859 -73.37475586 239.54052734 C-72.6206543 240.28560547 -71.86655273 241.03068359 -71.08959961 241.79833984 C-69.23074814 243.63366155 -67.36738581 245.46414644 -65.49975586 247.29052734 C-61.34110806 245.74201638 -58.79196858 243.98707088 -55.56225586 240.91552734 C-46.39020234 232.47723811 -46.39020234 232.47723811 -41.65209961 232.00927734 C-37.98480956 232.33647051 -36.34900019 233.31208396 -33.31225586 235.35302734 C-27.96335513 238.65084584 -22.59297893 240.96715744 -16.68725586 243.10302734 C-15.88715088 243.39250244 -15.0870459 243.68197754 -14.26269531 243.98022461 C-10.70491757 245.23924455 -7.23456011 246.35741053 -3.55053711 247.17724609 C-0.49975586 248.29052734 -0.49975586 248.29052734 0.87133789 250.25146484 C1.80846581 254.77994632 2.20190379 259.3093218 2.56274414 263.91552734 C2.71712402 265.80381021 2.87454349 267.6918477 3.03540039 269.57958984 C3.13413452 270.82796631 3.13413452 270.82796631 3.23486328 272.1015625 C3.4474632 274.4651025 3.4474632 274.4651025 4.50024414 277.29052734 C13.74024414 277.29052734 22.98024414 277.29052734 32.50024414 277.29052734 C33.32686294 268.91590463 33.32686294 268.91590463 34.11450195 260.53759766 C34.22632813 259.4918457 34.3381543 258.44609375 34.45336914 257.36865234 C34.55810547 256.3003418 34.6628418 255.23203125 34.77075195 254.13134766 C35.6439716 250.73081762 36.77056072 249.45038624 39.50024414 247.29052734 C41.93834854 246.40914688 44.25459792 245.6910541 46.75024414 245.04052734 C56.58742867 242.24082742 65.97548417 237.97370066 74.50024414 232.29052734 C78.61974606 231.81890212 80.78246522 231.84684532 84.34399414 234.04833984 C85.22055664 234.82951172 86.09711914 235.61068359 87.00024414 236.41552734 C87.93481445 237.23150391 88.86938477 238.04748047 89.83227539 238.88818359 C90.71270508 239.68095703 91.59313477 240.47373047 92.50024414 241.29052734 C93.89320248 242.48139846 95.28852961 243.66951323 96.68774414 244.85302734 C97.61586914 245.65740234 98.54399414 246.46177734 99.50024414 247.29052734 C102.86360008 245.8330731 105.04558419 243.97934881 107.60961914 241.37646484 C108.3637207 240.61591797 109.11782227 239.85537109 109.89477539 239.07177734 C110.67208008 238.27771484 111.44938477 237.48365234 112.25024414 236.66552734 C113.04301758 235.86373047 113.83579102 235.06193359 114.65258789 234.23583984 C116.60638908 232.25849889 118.55536517 230.27663826 120.50024414 228.29052734 C116.32598847 222.63125993 111.95429429 217.22645473 107.35571289 211.90380859 C105.40520858 209.15667726 104.60604016 207.64426121 104.50024414 204.29052734 C105.50415039 201.88818359 105.50415039 201.88818359 107.06274414 199.35302734 C112.80596082 189.41233211 116.80505021 179.32463799 119.34790039 168.15380859 C120.50024414 165.29052734 120.50024414 165.29052734 122.49243164 163.46630859 C126.79192988 161.78559565 130.98379531 161.50226331 135.56274414 161.16552734 C137.34550594 161.01963011 139.12806927 160.87128231 140.91040039 160.72021484 C141.69552002 160.66075684 142.48063965 160.60129883 143.28955078 160.54003906 C145.82337544 160.30338642 145.82337544 160.30338642 149.50024414 159.29052734 C149.50024414 150.05052734 149.50024414 140.81052734 149.50024414 131.29052734 C141.0796898 130.38427996 141.0796898 130.38427996 132.65722656 129.49609375 C131.60897705 129.37927246 130.56072754 129.26245117 129.48071289 129.14208984 C128.40716553 129.02687988 127.33361816 128.91166992 126.22753906 128.79296875 C123.50024414 128.29052734 123.50024414 128.29052734 120.50024414 126.29052734 C119.65973192 123.74226062 118.95993975 121.26232104 118.31274414 118.66552734 C115.65831259 108.82789619 111.66818019 99.1003776 105.69555664 90.77490234 C103.91307274 87.07013189 104.31203112 85.22108667 105.50024414 81.29052734 C107.60319748 78.1459515 110.04634606 75.35948355 112.56274414 72.54052734 C113.87249315 71.05130835 115.17620316 69.55674955 116.47290039 68.05615234 C117.05305908 67.40420898 117.63321777 66.75226563 118.23095703 66.08056641 C119.78945651 64.24839045 119.78945651 64.24839045 119.50024414 61.29052734 C117.81597335 59.1891333 117.81597335 59.1891333 115.56274414 57.06005859 C114.75063477 56.25761719 113.93852539 55.45517578 113.10180664 54.62841797 C111.8140332 53.37834961 111.8140332 53.37834961 110.50024414 52.10302734 C109.64172852 51.25804687 108.78321289 50.41306641 107.89868164 49.54248047 C105.77240764 47.45164437 103.6394595 45.36810751 101.50024414 43.29052734 C98.55029066 45.00372734 95.8158994 46.71842944 93.23852539 48.95458984 C92.67713867 49.43669922 92.11575195 49.91880859 91.53735352 50.41552734 C90.96823242 50.91052734 90.39911133 51.40552734 89.81274414 51.91552734 C82.55829539 58.19573825 82.55829539 58.19573825 78.27368164 58.57958984 C73.8680798 58.24210068 71.81285105 57.04952503 68.12524414 54.66552734 C61.51421168 50.58499023 54.77072312 48.02354695 47.41040039 45.61474609 C36.97361095 42.12287865 36.97361095 42.12287865 35.44946289 39.44287109 C35.3630957 38.71197266 35.27672852 37.98107422 35.18774414 37.22802734 C35.01178711 35.93058594 35.01178711 35.93058594 34.83227539 34.60693359 C34.72270508 33.51251953 34.61313477 32.41810547 34.50024414 31.29052734 C34.31868703 29.73690257 34.13491997 28.18353515 33.94946289 26.63037109 C33.42253942 22.18695515 32.96537986 17.74254066 32.50024414 13.29052734 C23.26024414 13.29052734 14.02024414 13.29052734 4.50024414 13.29052734 Z " fill="#000000" transform="translate(151.499755859375,91.70947265625)"/>
<path d="M0 0 C0.76454498 -0.00570007 1.52908997 -0.01140015 2.31680298 -0.01727295 C3.93579727 -0.0267247 5.55481082 -0.03325763 7.17382812 -0.03710938 C9.64747808 -0.04680996 12.12029531 -0.07782835 14.59375 -0.109375 C16.16666173 -0.11590568 17.73957941 -0.1211559 19.3125 -0.125 C20.05116302 -0.1373468 20.78982605 -0.1496936 21.5508728 -0.16241455 C24.69191969 -0.14883096 26.94291667 0.01775635 29.73583984 1.51342773 C32.20949375 4.20443036 32.15786424 6.94718577 32.5390625 10.515625 C32.76335937 12.45888672 32.76335937 12.45888672 32.9921875 14.44140625 C33.25083744 17.71877329 33.35017716 20.91821226 33.2890625 24.203125 C34.5678125 24.43 35.8465625 24.656875 37.1640625 24.890625 C41.94572862 25.90880312 45.74775767 27.8877084 49.9296875 30.375 C52.28033982 31.43664893 52.28033982 31.43664893 54.75 30.6328125 C58.78457307 28.36103751 61.97026515 25.21193987 65.375 22.1015625 C69.08435765 19.68501047 70.91619485 19.69171742 75.2890625 20.203125 C77.6079983 21.8214132 79.2883148 23.21662077 81.22265625 25.20703125 C81.7454567 25.72313461 82.26825714 26.23923798 82.80690002 26.77098083 C83.90356761 27.86290152 84.99151099 28.9636468 86.07104492 30.07250977 C87.72220946 31.7611731 89.40741828 33.40920738 91.09960938 35.05664062 C92.16370988 36.12536708 93.22563671 37.19626313 94.28515625 38.26953125 C95.03967323 39.00279381 95.03967323 39.00279381 95.80943298 39.75086975 C98.44337778 42.51173699 99.27231973 44.05996346 99.72045898 47.8918457 C99.17405194 52.085914 97.74448137 53.72984314 94.9140625 56.828125 C90.53516426 61.44435995 90.53516426 61.44435995 88.2890625 67.203125 C89.08274533 70.07575461 90.34392272 72.66357817 91.6640625 75.328125 C95.2890625 82.89156485 95.2890625 82.89156485 95.2890625 86.203125 C96.79146484 86.27660156 96.79146484 86.27660156 98.32421875 86.3515625 C99.66669009 86.42666579 101.0091368 86.50221026 102.3515625 86.578125 C103.66253906 86.64773438 104.97351563 86.71734375 106.32421875 86.7890625 C115.87212081 87.78618331 115.87212081 87.78618331 119.2890625 91.203125 C119.5011745 93.96472897 119.59303325 96.62350552 119.58984375 99.38671875 C119.59412888 100.1980275 119.598414 101.00933624 119.60282898 101.8452301 C119.6085765 103.56258205 119.60906944 105.27995835 119.60473633 106.99731445 C119.601579 109.6268872 119.62501998 112.25533231 119.65039062 114.88476562 C119.65266382 116.55208191 119.65336702 118.21940123 119.65234375 119.88671875 C119.6615535 120.67429062 119.67076324 121.46186249 119.68025208 122.27330017 C119.63423818 127.69620699 119.63423818 127.69620699 117.94482422 130.17724609 C111.88151932 133.93395609 102.25384563 133.47625375 95.2890625 133.203125 C95.18722656 134.20472656 95.08539063 135.20632813 94.98046875 136.23828125 C94.39038412 140.36887365 92.94852741 143.86508709 91.2265625 147.640625 C90.94490234 148.27677734 90.66324219 148.91292969 90.37304688 149.56835938 C89.68616438 151.11675551 88.98871843 152.66045857 88.2890625 154.203125 C89.07152344 155.15574219 89.85398437 156.10835937 90.66015625 157.08984375 C91.68277052 158.35638436 92.70487955 159.62333301 93.7265625 160.890625 C94.24283203 161.51646484 94.75910156 162.14230469 95.29101562 162.78710938 C100.35025992 169.102898 100.35025992 169.102898 100.2890625 173.203125 C97.35449675 178.84824837 92.91605197 183.02014074 88.47509766 187.49755859 C87.04269009 188.94944807 85.63303335 190.42127422 84.22265625 191.89453125 C82.85560547 193.27705078 82.85560547 193.27705078 81.4609375 194.6875 C80.6369043 195.53022461 79.81287109 196.37294922 78.96386719 197.24121094 C75.67192363 199.65578363 73.33716501 200.05383034 69.2890625 200.203125 C66.62890625 198.69140625 66.62890625 198.69140625 64.2265625 196.515625 C63.36546875 195.78730469 62.504375 195.05898438 61.6171875 194.30859375 C59.2890625 192.203125 59.2890625 192.203125 57.7734375 190.56640625 C56.35091674 189.03853867 56.35091674 189.03853867 53.2890625 188.203125 C49.83945019 189.37218488 46.73007739 190.8591624 43.5078125 192.5546875 C40.47543247 194.10767825 37.54241911 195.21339904 34.2890625 196.203125 C34.17630981 197.08834839 34.17630981 197.08834839 34.0612793 197.99145508 C33.71284146 200.66807926 33.34494075 203.34167541 32.9765625 206.015625 C32.85861328 206.94439453 32.74066406 207.87316406 32.61914062 208.83007812 C32.49345703 209.72275391 32.36777344 210.61542969 32.23828125 211.53515625 C32.12830811 212.35733643 32.01833496 213.1795166 31.9050293 214.02661133 C31.17169614 216.61783807 30.36227764 217.51455503 28.2890625 219.203125 C25.34721509 219.46480179 22.6216904 219.55186421 19.68359375 219.49609375 C18.84438889 219.49184891 18.00518402 219.48760406 17.14054871 219.48323059 C14.46056005 219.46643964 11.7813238 219.4287873 9.1015625 219.390625 C7.28451607 219.37557867 5.46745785 219.36189018 3.65039062 219.34960938 C-0.80367526 219.31653482 -5.25717882 219.26475013 -9.7109375 219.203125 C-11.54991263 215.74991436 -13.05037461 212.80875392 -13.44140625 208.8984375 C-13.56225586 207.77695312 -13.56225586 207.77695312 -13.68554688 206.6328125 C-13.75580078 205.87226563 -13.82605469 205.11171875 -13.8984375 204.328125 C-13.98029297 203.544375 -14.06214844 202.760625 -14.14648438 201.953125 C-14.34505425 200.03750971 -14.52945497 198.12043458 -14.7109375 196.203125 C-15.56816406 195.87699219 -16.42539062 195.55085937 -17.30859375 195.21484375 C-18.45199219 194.77785156 -19.59539062 194.34085938 -20.7734375 193.890625 C-21.89878906 193.46136719 -23.02414062 193.03210938 -24.18359375 192.58984375 C-27.72780356 191.19649438 -31.21839372 189.72026822 -34.7109375 188.203125 C-35.56816406 188.98558594 -36.42539062 189.76804687 -37.30859375 190.57421875 C-38.46286933 191.59711337 -39.61785528 192.61920676 -40.7734375 193.640625 C-41.33482422 194.15689453 -41.89621094 194.67316406 -42.47460938 195.20507812 C-45.30750447 197.68183783 -47.58235938 199.15499963 -51.14453125 200.48828125 C-56.5925272 200.05268026 -58.99198687 196.97922365 -62.7109375 193.203125 C-64.19803076 191.80472517 -65.68633437 190.40761146 -67.17578125 189.01171875 C-68.66930653 187.55739361 -70.16017832 186.10033867 -71.6484375 184.640625 C-72.41478516 183.91166016 -73.18113281 183.18269531 -73.97070312 182.43164062 C-79.43269608 177.05672993 -79.43269608 177.05672993 -80.8046875 172.84765625 C-80.67095551 169.07529968 -79.00595602 167.02113702 -76.7109375 164.203125 C-75.69580078 162.91535156 -75.69580078 162.91535156 -74.66015625 161.6015625 C-72.69358749 159.12152019 -70.70937301 156.65751424 -68.7109375 154.203125 C-69.20464844 153.01074219 -69.69835937 151.81835938 -70.20703125 150.58984375 C-70.85421995 149.02345951 -71.50135244 147.45705205 -72.1484375 145.890625 C-72.47392578 145.10494141 -72.79941406 144.31925781 -73.13476562 143.50976562 C-73.44736328 142.75244141 -73.75996094 141.99511719 -74.08203125 141.21484375 C-74.37005615 140.51834717 -74.65808105 139.82185059 -74.95483398 139.10424805 C-75.59617107 137.49169013 -76.1621519 135.84948179 -76.7109375 134.203125 C-77.88011719 134.09355469 -79.04929687 133.98398437 -80.25390625 133.87109375 C-81.80214944 133.71157779 -83.35032308 133.55138586 -84.8984375 133.390625 C-86.05182617 133.28524414 -86.05182617 133.28524414 -87.22851562 133.17773438 C-92.13432432 132.65136005 -96.06953395 131.84452855 -99.7109375 128.203125 C-99.83675522 125.5836382 -99.89959236 122.99195526 -99.9140625 120.37109375 C-99.91976257 119.58293777 -99.92546265 118.7947818 -99.93133545 117.98274231 C-99.94080068 116.31069283 -99.94732545 114.63862458 -99.95117188 112.96655273 C-99.96085793 110.41161306 -99.99185778 107.85748435 -100.0234375 105.30273438 C-100.0299693 103.67969229 -100.03521908 102.05664443 -100.0390625 100.43359375 C-100.0514093 99.66991989 -100.0637561 98.90624603 -100.07647705 98.11943054 C-100.06323299 94.95429943 -99.89637506 92.5737085 -98.46899414 89.72119141 C-96.26663119 87.81947042 -95.13891379 87.71768849 -92.25390625 87.68359375 C-83.04002901 87.65567379 -83.04002901 87.65567379 -75.22021484 83.68701172 C-72.72208932 79.49440821 -71.7487143 74.92853588 -70.7109375 70.203125 C-70.08016826 68.52254403 -69.42876274 66.84840587 -68.7109375 65.203125 C-69.49339844 64.33429688 -70.27585937 63.46546875 -71.08203125 62.5703125 C-72.10479471 61.40680177 -73.12689545 60.24270825 -74.1484375 59.078125 C-74.66470703 58.50835937 -75.18097656 57.93859375 -75.71289062 57.3515625 C-78.81509791 53.78301033 -80.77118133 51.14311891 -80.7109375 46.203125 C-78.7204897 42.30623142 -76.20243798 39.44847573 -73.11328125 36.375 C-72.22962891 35.49328125 -71.34597656 34.6115625 -70.43554688 33.703125 C-69.51580078 32.795625 -68.59605469 31.888125 -67.6484375 30.953125 C-66.26301758 29.56867188 -66.26301758 29.56867188 -64.84960938 28.15625 C-57.01261515 20.37077729 -57.01261515 20.37077729 -52.49609375 19.7890625 C-46.84796468 20.40691769 -44.38911685 23.5740284 -40.51757812 27.46875 C-38.72823873 29.22267295 -38.72823873 29.22267295 -35.7109375 31.203125 C-32.62448326 30.83497618 -32.62448326 30.83497618 -29.7109375 29.203125 C-28.61394531 28.77773438 -27.51695312 28.35234375 -26.38671875 27.9140625 C-24.13599579 27.02004711 -21.8859998 26.12419946 -19.63671875 25.2265625 C-16.7109375 24.203125 -16.7109375 24.203125 -13.7109375 24.203125 C-13.67355469 22.96175781 -13.63617188 21.72039062 -13.59765625 20.44140625 C-13.531978 18.79944989 -13.4655313 17.15752413 -13.3984375 15.515625 C-13.37587891 14.69900391 -13.35332031 13.88238281 -13.33007812 13.04101562 C-13.12043097 8.33348396 -12.7611271 5.02151049 -9.7109375 1.203125 C-6.63032648 -0.33718051 -3.38183467 0.01935124 0 0 Z M0.2890625 14.203125 C-0.32834152 20.03642152 -0.32834152 20.03642152 -0.93725586 25.87060547 C-1.01596924 26.59650879 -1.09468262 27.32241211 -1.17578125 28.0703125 C-1.2543335 28.81394043 -1.33288574 29.55756836 -1.41381836 30.32373047 C-1.7109375 32.203125 -1.7109375 32.203125 -2.7109375 34.203125 C-5.49453653 35.19258419 -8.26250775 36.09309696 -11.0859375 36.953125 C-17.64478597 39.01726551 -23.4419647 41.34259533 -29.25390625 45.1015625 C-32.69261807 46.64324252 -34.97494565 46.69747533 -38.7109375 46.203125 C-41.14751831 44.59216248 -43.04478603 43.15632712 -45.1484375 41.203125 C-45.68919922 40.72617187 -46.22996094 40.24921875 -46.78710938 39.7578125 C-48.108752 38.58821726 -49.41183276 37.39770407 -50.7109375 36.203125 C-54.39163637 37.73956352 -56.69868954 39.98463445 -59.4609375 42.828125 C-60.65976562 44.05402344 -60.65976562 44.05402344 -61.8828125 45.3046875 C-62.48609375 45.93117188 -63.089375 46.55765625 -63.7109375 47.203125 C-61.97370738 52.33252551 -58.94726645 55.6121578 -55.390625 59.60546875 C-53.27379504 62.8791709 -53.13042718 64.35843367 -53.7109375 68.203125 C-54.87703637 70.83250812 -56.07504128 73.26106679 -57.4609375 75.765625 C-60.26042598 80.99693702 -62.3197928 85.8211797 -63.7734375 91.578125 C-65.32067495 96.98011783 -65.32067495 96.98011783 -68.7734375 98.953125 C-70.0728125 99.035625 -71.3721875 99.118125 -72.7109375 99.203125 C-74.64870861 99.38780208 -76.58619814 99.57545098 -78.5234375 99.765625 C-79.45800781 99.82878906 -80.39257812 99.89195312 -81.35546875 99.95703125 C-83.72855425 100.06532885 -83.72855425 100.06532885 -85.7109375 101.203125 C-85.7109375 107.143125 -85.7109375 113.083125 -85.7109375 119.203125 C-80.25227682 119.78033169 -80.25227682 119.78033169 -74.79174805 120.33935547 C-74.10894775 120.41557129 -73.42614746 120.49178711 -72.72265625 120.5703125 C-72.02615967 120.64362793 -71.32966309 120.71694336 -70.61206055 120.79248047 C-68.7109375 121.203125 -68.7109375 121.203125 -65.7109375 123.203125 C-64.53515625 126.2578125 -64.53515625 126.2578125 -63.3984375 130.078125 C-60.07995214 141.49607207 -60.07995214 141.49607207 -53.7109375 151.203125 C-53.17812046 155.69321863 -53.37242342 157.69112246 -55.8984375 161.51171875 C-56.81865418 162.56996793 -57.756731 163.61291881 -58.7109375 164.640625 C-59.18789063 165.18138672 -59.66484375 165.72214844 -60.15625 166.27929688 C-61.32584524 167.6009395 -62.51635843 168.90402026 -63.7109375 170.203125 C-62.17449898 173.88382387 -59.92942805 176.19087704 -57.0859375 178.953125 C-56.26867187 179.75234375 -55.45140625 180.5515625 -54.609375 181.375 C-53.98289062 181.97828125 -53.35640625 182.5815625 -52.7109375 183.203125 C-48.94875325 181.89653745 -46.43840771 180.34134208 -43.5234375 177.640625 C-38.88533297 173.37498775 -38.88533297 173.37498775 -35.1484375 172.828125 C-31.06285481 173.27382493 -28.75370514 174.69547833 -25.26953125 176.76953125 C-22.46227682 178.34245091 -19.62018297 179.59520664 -16.6484375 180.828125 C-15.13443359 181.45847656 -15.13443359 181.45847656 -13.58984375 182.1015625 C-10.80856439 183.22236687 -10.80856439 183.22236687 -8.23828125 183.8671875 C-6.0859375 184.453125 -6.0859375 184.453125 -2.7109375 186.203125 C-1.26088785 189.11588849 -0.99276059 191.98843109 -0.7109375 195.203125 C-0.60394531 196.20472656 -0.49695313 197.20632813 -0.38671875 198.23828125 C-0.12328611 200.88971368 0.08727754 203.54628975 0.2890625 206.203125 C6.2290625 206.203125 12.1690625 206.203125 18.2890625 206.203125 C20.17277136 202.43570729 19.92306704 197.60476356 20.1875 193.41210938 C20.71940749 187.69410388 20.71940749 187.69410388 23.5234375 185.27734375 C26.26133776 184.21389379 28.96881768 183.27440508 31.7890625 182.453125 C37.77135133 180.56242631 42.90504114 177.80061142 48.28125 174.59375 C51.6859798 173.01961518 53.58649407 172.64108399 57.2890625 173.203125 C59.88671875 174.8828125 59.88671875 174.8828125 62.3515625 177.078125 C65.8207528 180.13627379 67.83078359 181.41981344 72.2890625 183.203125 C75.9190625 179.573125 79.5490625 175.943125 83.2890625 172.203125 C81.06491728 167.75483456 78.26245094 164.61996011 74.96875 160.93359375 C72.75605805 157.33668289 72.74505733 155.37680404 73.2890625 151.203125 C74.30440855 148.50202148 75.63729038 146.03381179 77.0390625 143.515625 C80.17607327 137.62384715 82.59881585 131.91844714 84.40234375 125.4609375 C85.2890625 123.203125 85.2890625 123.203125 88.2890625 121.203125 C90.28198242 120.79248047 90.28198242 120.79248047 92.51953125 120.5703125 C93.60463989 120.45598877 93.60463989 120.45598877 94.71166992 120.33935547 C95.62408447 120.25314941 96.53649902 120.16694336 97.4765625 120.078125 C100.3846875 119.789375 103.2928125 119.500625 106.2890625 119.203125 C106.2890625 113.263125 106.2890625 107.323125 106.2890625 101.203125 C104.3090625 100.914375 102.3290625 100.625625 100.2890625 100.328125 C97.95052379 99.98708811 95.61713071 99.60953346 93.2890625 99.203125 C92.59111572 99.12255859 91.89316895 99.04199219 91.17407227 98.95898438 C88.98332471 98.6076215 87.26644688 98.21557711 85.2890625 97.203125 C83.78459729 94.41684272 83.00055633 92.43969269 82.2265625 89.453125 C81.76359642 87.90891864 81.29206806 86.36725636 80.8125 84.828125 C80.45236816 83.66603516 80.45236816 83.66603516 80.08496094 82.48046875 C78.4406736 77.77558768 75.93376599 73.49639411 73.51171875 69.15625 C72.09768148 65.74087563 71.91843558 64.60844227 73.2890625 61.203125 C74.9222584 58.97807007 76.53394916 56.9482533 78.3515625 54.890625 C78.82400391 54.34083984 79.29644531 53.79105469 79.78320312 53.22460938 C80.9434435 51.8768554 82.11513474 50.53897383 83.2890625 49.203125 C81.75262398 45.52242613 79.50755305 43.21537296 76.6640625 40.453125 C75.43816406 39.25429688 75.43816406 39.25429688 74.1875 38.03125 C73.56101562 37.42796875 72.93453125 36.8246875 72.2890625 36.203125 C68.80853078 37.71987047 66.36547427 39.81675913 63.5390625 42.328125 C57.98824395 46.79645255 57.98824395 46.79645255 54.1640625 47.015625 C50.63467176 46.27559146 49.47301421 45.81295604 46.6953125 43.859375 C41.291312 40.36071927 35.35253464 38.82280021 29.18359375 37.15039062 C22.83489585 35.17534593 22.83489585 35.17534593 21.26489258 32.37890625 C20.71898171 30.294564 20.44285569 28.35017278 20.2890625 26.203125 C20.16402344 25.24664062 20.03898437 24.29015625 19.91015625 23.3046875 C19.84957031 22.48742187 19.78898437 21.67015625 19.7265625 20.828125 C19.49198314 17.38387544 19.49198314 17.38387544 18.2890625 14.203125 C12.3490625 14.203125 6.4090625 14.203125 0.2890625 14.203125 Z " fill="#000000" transform="translate(367.7109375,292.796875)"/>
<path d="M0 0 C2.05013493 -0.00971283 4.09927004 -0.04074007 6.14916992 -0.07226562 C7.43887695 -0.07742187 8.72858398 -0.08257813 10.05737305 -0.08789062 C11.83712524 -0.10190918 11.83712524 -0.10190918 13.65283203 -0.11621094 C16.6237793 0.24023438 16.6237793 0.24023438 18.49121094 1.59277344 C21.51089553 5.98527865 20.71184444 12.13245584 20.6237793 17.24023438 C22.82479166 18.01792541 25.02909736 18.76738368 27.25268555 19.47851562 C29.07808431 20.06492874 30.88658694 20.7041229 32.6862793 21.36523438 C36.92575237 21.18483127 38.60452955 18.84073675 41.40112305 15.80664062 C43.6237793 14.24023437 43.6237793 14.24023437 46.79174805 13.47851562 C52.78045289 14.66893096 55.87582881 18.55518078 59.9987793 22.86523438 C60.81733398 23.67347656 61.63588867 24.48171875 62.47924805 25.31445312 C69.21734128 32.18663776 69.21734128 32.18663776 69.6237793 38.24023438 C68.47924805 40.43554687 68.47924805 40.43554687 66.8112793 42.36523438 C63.6735361 45.98091321 63.6735361 45.98091321 61.6237793 50.24023438 C62.24900446 52.81697735 62.24900446 52.81697735 63.4987793 55.36523438 C65.6237793 60.10778404 65.6237793 60.10778404 65.6237793 62.24023438 C66.51581055 62.28921875 67.4078418 62.33820312 68.3269043 62.38867188 C69.49737305 62.4634375 70.6678418 62.53820313 71.8737793 62.61523438 C73.03393555 62.68484375 74.1940918 62.75445312 75.3894043 62.82617188 C78.35041886 63.20523896 80.15921942 63.60893046 82.6237793 65.24023438 C84.90757112 69.80781803 83.89900535 76.10064561 83.9362793 81.11523438 C83.9652832 82.40816406 83.99428711 83.70109375 84.02416992 85.03320312 C84.03254883 86.27457031 84.04092773 87.5159375 84.04956055 88.79492188 C84.07143433 90.50397705 84.07143433 90.50397705 84.09375 92.24755859 C83.52029394 95.89920764 82.55448669 97.05111002 79.6237793 99.24023438 C76.1706543 99.84960938 76.1706543 99.84960938 72.3737793 99.99023438 C71.11049805 100.04695313 69.8472168 100.10367188 68.5456543 100.16210938 C67.58143555 100.18789062 66.6172168 100.21367188 65.6237793 100.24023438 C65.49358398 101.16578125 65.36338867 102.09132813 65.22924805 103.04492188 C64.6237793 106.24023437 64.6237793 106.24023437 62.9362793 109.36523438 C61.29754141 112.05969806 61.29754141 112.05969806 62.3425293 114.17773438 C63.67988275 116.33054726 65.1760998 118.18098404 66.8112793 120.11523438 C68.80896386 122.78209406 69.58504185 123.86835488 69.9362793 127.24023438 C67.98317525 131.70447219 65.00444339 134.77833436 61.6237793 138.24023438 C60.83358398 139.0575 60.04338867 139.87476563 59.22924805 140.71679688 C52.069008 148.00427867 52.069008 148.00427867 47.5612793 148.74023438 C43.16983647 148.18259084 42.40805766 147.41323685 39.2487793 144.55273438 C36.15539067 141.7865221 36.15539067 141.7865221 32.2253418 141.40820312 C29.93630047 142.2181131 27.80644672 143.18056412 25.6237793 144.24023438 C23.96538056 144.61252797 22.30176654 144.96959127 20.6237793 145.24023438 C20.64698242 145.80871094 20.67018555 146.3771875 20.6940918 146.96289062 C20.81531251 152.14940549 20.50779279 156.38146275 18.6237793 161.24023438 C13.55491646 164.61947627 7.57496515 163.5675236 1.6237793 163.55273438 C0.32698242 163.56884766 -0.96981445 163.58496094 -2.3059082 163.6015625 C-3.54598633 163.60220703 -4.78606445 163.60285156 -6.0637207 163.60351562 C-7.77108398 163.60798706 -7.77108398 163.60798706 -9.51293945 163.61254883 C-12.3762207 163.24023438 -12.3762207 163.24023438 -14.2277832 161.84643555 C-17.53076396 157.22689677 -16.47086729 150.65612245 -16.3762207 145.24023438 C-17.3352832 145.08554687 -17.3352832 145.08554687 -18.3137207 144.92773438 C-21.3762207 144.24023438 -21.3762207 144.24023438 -23.39575195 143.25976562 C-25.83749618 142.14366187 -27.68801002 141.42849669 -30.3762207 141.24023438 C-32.96922835 142.75354486 -35.01053711 144.56098513 -37.25512695 146.54882812 C-39.3762207 148.24023438 -39.3762207 148.24023438 -42.9387207 149.11523438 C-48.04287153 147.81599598 -50.7148475 144.90160758 -54.3762207 141.24023438 C-55.71040039 140.02980469 -55.71040039 140.02980469 -57.0715332 138.79492188 C-57.97645508 137.951875 -58.88137695 137.10882813 -59.8137207 136.24023438 C-61.08022461 135.06460938 -61.08022461 135.06460938 -62.37231445 133.86523438 C-64.89387515 130.56213733 -65.33404921 128.37304088 -65.3762207 124.24023438 C-64.1965332 121.98242187 -64.1965332 121.98242187 -62.5012207 120.11523438 C-59.87981952 117.17682654 -58.73635391 115.20770188 -58.3762207 111.24023438 C-58.85645476 107.33394026 -59.87367811 104.30502222 -62.3762207 101.24023438 C-65.74456102 100.14356544 -68.75028982 99.80952193 -72.2824707 99.61914062 C-75.77540125 99.19134484 -76.94079654 98.73778176 -79.3762207 96.24023438 C-79.87792969 93.28515625 -79.87792969 93.28515625 -79.87231445 89.70898438 C-79.87295898 88.42378906 -79.87360352 87.13859375 -79.87426758 85.81445312 C-79.86387451 85.14591309 -79.85348145 84.47737305 -79.84277344 83.78857422 C-79.81381517 81.74689464 -79.82216396 79.70781222 -79.83520508 77.66601562 C-79.77061841 67.75941366 -79.77061841 67.75941366 -77.97412109 65.39453125 C-74.62820465 62.97749642 -71.83253107 62.9578243 -67.7512207 62.67773438 C-66.56270508 62.59394531 -65.37418945 62.51015625 -64.1496582 62.42382812 C-63.23442383 62.36324219 -62.31918945 62.30265625 -61.3762207 62.24023438 C-61.24344727 61.33015625 -61.11067383 60.42007813 -60.97387695 59.48242188 C-60.26927427 55.66006745 -58.99341757 52.75587973 -57.3762207 49.24023438 C-57.9537207 48.58796875 -58.5312207 47.93570313 -59.1262207 47.26367188 C-59.8687207 46.3896875 -60.6112207 45.51570313 -61.3762207 44.61523438 C-62.1187207 43.75671875 -62.8612207 42.89820313 -63.6262207 42.01367188 C-65.73887724 38.66548852 -65.8180319 37.14061312 -65.3762207 33.24023438 C-62.85969517 29.50287982 -59.52789902 26.51072355 -56.3137207 23.36523438 C-55.46616211 22.48609375 -54.61860352 21.60695313 -53.74536133 20.70117188 C-47.47605787 14.46575654 -47.47605787 14.46575654 -42.5090332 13.44726562 C-39.0467236 14.32363576 -37.70850516 15.20457119 -35.3137207 17.80273438 C-32.40343025 20.73826578 -32.40343025 20.73826578 -28.4387207 21.36523438 C-27.4280957 20.99398438 -26.4174707 20.62273438 -25.3762207 20.24023438 C-23.75157015 19.71831204 -22.12655108 19.19753582 -20.5012207 18.67773438 C-19.12468774 18.20298951 -17.74913938 17.72533231 -16.3762207 17.24023438 C-16.39942383 16.58796875 -16.42262695 15.93570312 -16.4465332 15.26367188 C-16.55099252 10.2048563 -16.54181046 5.93234552 -14.3762207 1.24023438 C-10.15429983 -0.87072606 -4.64429307 0.01335047 0 0 Z M-2.3762207 13.24023438 C-3.56959711 15.25654245 -3.56959711 15.25654245 -3.3840332 17.84960938 C-3.51861009 21.45626998 -3.85888492 23.94692604 -5.3762207 27.24023438 C-9.01584413 29.50607837 -12.53061567 30.78466958 -16.59887695 32.05664062 C-19.70216651 33.02902608 -22.15144503 34.06404846 -24.9387207 35.67773438 C-28.3762207 37.24023438 -28.3762207 37.24023438 -31.3762207 37.36523438 C-35.64622816 35.76398158 -38.88876074 33.13464911 -42.3762207 30.24023438 C-44.6862207 32.22023438 -46.9962207 34.20023438 -49.3762207 36.24023438 C-48.95469727 36.79453125 -48.53317383 37.34882812 -48.09887695 37.91992188 C-47.55102539 38.644375 -47.00317383 39.36882813 -46.4387207 40.11523438 C-45.89344727 40.83453125 -45.34817383 41.55382812 -44.78637695 42.29492188 C-42.26361742 45.77507215 -42.02056486 47.93679869 -42.3762207 52.24023438 C-43.42011122 54.671327 -44.47680283 56.87923072 -45.7512207 59.17773438 C-47.69000444 62.73611184 -49.44059864 66.15233475 -50.44262695 70.09570312 C-50.75071289 71.13339844 -51.05879883 72.17109375 -51.3762207 73.24023438 C-55.94330275 75.69086376 -61.27544811 75.77652778 -66.3762207 76.24023438 C-66.3762207 79.54023437 -66.3762207 82.84023437 -66.3762207 86.24023438 C-65.47258789 86.33820313 -64.56895508 86.43617187 -63.63793945 86.53710938 C-62.45844727 86.68664062 -61.27895508 86.83617188 -60.0637207 86.99023438 C-58.89196289 87.12945312 -57.72020508 87.26867187 -56.51293945 87.41210938 C-53.3762207 88.24023437 -53.3762207 88.24023437 -51.61450195 89.88476562 C-50.02955034 92.89967358 -48.95227669 95.94611752 -47.8762207 99.17773438 C-46.40807248 103.57747344 -44.8039081 107.29954067 -42.3762207 111.24023438 C-41.8137207 114.11523438 -41.8137207 114.11523438 -42.3762207 117.24023438 C-43.85461711 119.16131445 -45.41817108 120.84538372 -47.16137695 122.52929688 C-48.60834944 124.17442671 -48.60834944 124.17442671 -48.1887207 126.31054688 C-47.10287847 128.88942219 -45.43316781 130.38234667 -43.3762207 132.24023438 C-40.83348957 131.11013165 -39.17368214 130.04894796 -37.1262207 128.11523438 C-34.21328816 126.12914401 -32.27521957 125.54616543 -28.74731445 125.71289062 C-24.59002402 126.63749393 -21.01701449 128.70719241 -17.2902832 130.71679688 C-14.79019106 132.02381556 -12.41531943 133.02678462 -9.7512207 133.92773438 C-6.3762207 135.24023438 -6.3762207 135.24023438 -4.3762207 138.24023438 C-3.99731445 140.65039062 -3.99731445 140.65039062 -3.8137207 143.30273438 C-3.59988624 146.90783481 -3.59988624 146.90783481 -2.3762207 150.24023438 C0.5937793 150.24023438 3.5637793 150.24023438 6.6237793 150.24023438 C6.75655273 149.42039063 6.88932617 148.60054687 7.02612305 147.75585938 C7.29102539 146.139375 7.29102539 146.139375 7.5612793 144.49023438 C7.82231445 142.88921875 7.82231445 142.88921875 8.08862305 141.25585938 C8.51082101 138.87675844 8.99580814 136.57108227 9.6237793 134.24023438 C10.38561523 134.08167969 11.14745117 133.923125 11.93237305 133.75976562 C17.18569106 132.57268627 21.76365435 131.39470282 26.3737793 128.55273438 C30.8518778 125.9014414 33.43873483 125.32030713 38.6237793 126.24023438 C41.2552649 127.97621442 43.45311445 129.96103629 45.6237793 132.24023438 C49.59240871 130.34485878 49.59240871 130.34485878 52.6237793 127.24023438 C52.6237793 123.96584351 51.26034321 122.83247681 49.0612793 120.36523438 C46.19942319 116.69618808 46.12746004 115.75566064 46.6237793 111.24023438 C47.64255342 108.65282721 48.68865267 106.27037416 49.9362793 103.80273438 C50.55844344 102.53372735 51.17954292 101.26419778 51.79956055 99.99414062 C52.10458496 99.37684082 52.40960938 98.75954102 52.72387695 98.12353516 C53.63681431 96.21295491 54.47227199 94.28237396 55.29174805 92.33007812 C56.6237793 89.24023438 56.6237793 89.24023438 57.6237793 88.24023438 C59.80397409 87.84357211 61.99342559 87.497082 64.1862793 87.17773438 C65.98258789 86.91283203 65.98258789 86.91283203 67.81518555 86.64257812 C68.74202148 86.50980469 69.66885742 86.37703125 70.6237793 86.24023438 C70.6237793 82.94023438 70.6237793 79.64023438 70.6237793 76.24023438 C69.64795898 76.16546875 68.67213867 76.09070313 67.66674805 76.01367188 C65.75829102 75.81644531 65.75829102 75.81644531 63.8112793 75.61523438 C61.91442383 75.44121094 61.91442383 75.44121094 59.97924805 75.26367188 C56.6237793 74.24023438 56.6237793 74.24023438 54.79956055 71.50195312 C54.41155273 70.42558594 54.02354492 69.34921875 53.6237793 68.24023438 C53.2731543 67.31082031 52.9225293 66.38140625 52.5612793 65.42382812 C51.93548299 63.59076645 51.3104849 61.75743208 50.6862793 59.92382812 C49.68421904 57.17577605 49.68421904 57.17577605 48.03393555 54.61132812 C46.00409804 51.19827725 46.01697139 49.15077422 46.6237793 45.24023438 C48.37321364 42.63890157 50.38722581 40.430193 52.6237793 38.24023438 C51.20586367 35.30576551 49.64045323 32.80691029 47.6237793 30.24023438 C44.15186462 31.76787683 41.48146344 33.89076075 38.6003418 36.31445312 C35.63198064 37.70477248 33.75649499 37.05427749 30.6237793 36.24023438 C28.47025954 35.34783289 26.34482442 34.3853435 24.2487793 33.36523438 C20.49486677 31.56988491 16.8015203 29.8656527 12.8737793 28.49023438 C9.6237793 27.24023438 9.6237793 27.24023438 8.6237793 25.24023438 C8.23747891 23.20440314 7.88781146 21.16150258 7.5612793 19.11523438 C7.29637695 17.47167969 7.29637695 17.47167969 7.02612305 15.79492188 C6.89334961 14.951875 6.76057617 14.10882813 6.6237793 13.24023438 C3.6537793 13.24023438 0.6837793 13.24023438 -2.3762207 13.24023438 Z " fill="#000000" transform="translate(359.376220703125,-0.240234375)"/>
<path d="M0 0 C17.12706773 14.24245687 27.85561212 33.73246675 30.65893555 55.86254883 C32.74874126 79.8662894 26.62964039 101.67269534 11.69018555 120.65551758 C-1.99950054 136.82802526 -21.65725979 148.83660946 -43.05981445 151.09301758 C-65.451455 152.68639863 -87.53407263 149.27431657 -105.62231445 135.03051758 C-107.1103954 133.72813308 -108.59033825 132.41635803 -110.05981445 131.09301758 C-111.06334961 130.31764648 -111.06334961 130.31764648 -112.0871582 129.52661133 C-127.78646536 117.12260429 -136.88478041 96.15652127 -139.37231445 76.78051758 C-141.87447674 53.90397219 -135.8333385 31.99199457 -122.0793457 13.51879883 C-91.52883221 -23.1772725 -38.11350055 -30.57288264 0 0 Z M-107.45043945 17.58129883 C-120.46547073 32.52202351 -127.04474782 50.23100374 -126.4387207 70.05395508 C-124.88967695 89.93415923 -116.27784422 106.51642142 -101.87231445 120.28051758 C-87.98625097 132.08245984 -70.11963301 138.81845595 -51.8449707 138.34301758 C-30.46161965 136.4236144 -12.01015781 127.74265683 1.94018555 111.09301758 C14.27363607 94.04766782 19.44216984 74.7711135 16.65161133 53.9387207 C13.27450097 35.49833824 2.70941319 19.41473214 -12.05981445 8.09301758 C-42.82832691 -12.23875767 -81.61753513 -9.30687119 -107.45043945 17.58129883 Z " fill="#000000" transform="translate(224.059814453125,170.906982421875)"/>
<path d="M0 0 C17.6515398 -0.76601022 34.44375344 6.16461885 47.60546875 17.68359375 C61.78036449 31.92588203 68.04965011 49.26227595 68.0703125 69.16015625 C66.92981248 86.97269289 59.34721183 103.10342487 46.35546875 115.3203125 C38.46802005 121.67071991 29.79890399 126.37637254 20.0703125 129.16015625 C18.91015625 129.49660156 18.91015625 129.49660156 17.7265625 129.83984375 C0.76108318 133.96811038 -16.99283492 130.82031862 -31.96484375 122.140625 C-36.76854808 118.93182645 -40.8732017 115.25846149 -44.9296875 111.16015625 C-45.63867188 110.4846875 -46.34765625 109.80921875 -47.078125 109.11328125 C-58.7859377 97.18118095 -63.48212489 80.03923135 -63.34960938 63.67724609 C-62.68253682 44.61008902 -54.52181532 29.25838408 -40.9296875 16.16015625 C-29.56401485 5.84925247 -15.02202422 1.24676719 0 0 Z M-36.9296875 31.78515625 C-47.18987696 43.96913123 -50.17737552 57.38943976 -49.15722656 72.96435547 C-47.90712799 85.02807499 -40.7714606 97.01285191 -31.9296875 105.16015625 C-18.56380514 115.21541236 -5.38450314 118.42754523 11.0703125 117.16015625 C24.05426141 114.87696184 36.02218155 107.6315383 44.0703125 97.16015625 C52.70144521 83.26313817 56.52574496 69.36955523 52.9453125 53.03515625 C48.98230307 39.09123419 40.34883046 28.03388043 27.9140625 20.62890625 C5.24259131 8.91946509 -19.39556037 13.249079 -36.9296875 31.78515625 Z " fill="#000000" transform="translate(374.9296875,336.83984375)"/>
<path d="M0 0 C11.06010684 8.27842334 17.80717766 19.31252968 20.1640625 32.98828125 C21.59664381 47.67985977 18.32883887 60.14505619 9.5625 71.97265625 C4.15014722 78.48316756 -1.85608477 82.67688502 -9.46875 86.31640625 C-10.22285156 86.67734375 -10.97695313 87.03828125 -11.75390625 87.41015625 C-22.3345652 91.44088347 -37.80072829 91.17936276 -48.08984375 86.57421875 C-48.87488281 86.15914063 -49.65992188 85.7440625 -50.46875 85.31640625 C-51.75458984 84.66285156 -51.75458984 84.66285156 -53.06640625 83.99609375 C-64.38103325 77.75001007 -72.03516607 68.49698171 -76.5703125 56.37109375 C-80.64838768 42.07877418 -78.9931079 27.84645231 -72.03125 14.79296875 C-64.70611582 3.18263108 -54.18298426 -4.38958085 -40.99609375 -8.02734375 C-26.50834154 -10.72273951 -12.24000032 -8.34721541 0 0 Z M-54.78125 15.00390625 C-62.79617883 23.55424531 -65.0571756 32.92213068 -64.8125 44.34765625 C-64.03443766 53.33073967 -60.0826517 61.21126622 -53.46875 67.31640625 C-52.98019531 67.7753125 -52.49164063 68.23421875 -51.98828125 68.70703125 C-45.26825237 74.21579566 -35.28418767 77.12244568 -26.64453125 76.6328125 C-15.64342599 75.03301084 -7.05269103 70.02721432 0.02734375 61.46875 C5.88007165 53.09250825 7.39404818 44.36618226 6.53125 34.31640625 C3.8556921 22.77328501 -2.60464472 14.67327409 -12.46875 8.31640625 C-26.48059373 0.85981105 -43.42862099 4.46065792 -54.78125 15.00390625 Z " fill="#000000" transform="translate(390.46875,40.68359375)"/>
<path d="M0 0 C1.69218155 -0.01925285 1.69218155 -0.01925285 3.41854858 -0.03889465 C5.25445053 -0.04997505 5.25445053 -0.04997505 7.12744141 -0.0612793 C8.38029938 -0.06935104 9.63315735 -0.07742279 10.92398071 -0.08573914 C13.57875273 -0.09958899 16.23340016 -0.11060307 18.88818359 -0.11816406 C22.28690801 -0.12923152 25.68497822 -0.16363566 29.0834713 -0.20333576 C32.3272299 -0.23577955 35.57104526 -0.2402787 38.81494141 -0.2487793 C40.03482758 -0.26628738 41.25471375 -0.28379547 42.51156616 -0.30183411 C44.21320419 -0.29744576 44.21320419 -0.29744576 45.94921875 -0.29296875 C46.94690277 -0.29883499 47.94458679 -0.30470123 48.97250366 -0.31074524 C52.3584131 0.3168313 53.56124306 1.44466179 55.60400391 4.17700195 C55.54150391 7.80200195 55.54150391 7.80200195 54.60400391 11.17700195 C50.96680786 13.60179932 48.74696909 13.56362772 44.41650391 13.80200195 C43.14419922 13.87676758 41.87189453 13.9515332 40.56103516 14.02856445 C39.58521484 14.07754883 38.60939453 14.1265332 37.60400391 14.17700195 C38.59400391 16.48700195 39.58400391 18.79700195 40.60400391 21.17700195 C41.35166016 21.2027832 42.09931641 21.22856445 42.86962891 21.25512695 C50.81864023 21.71292342 50.81864023 21.71292342 54.35400391 23.80200195 C56.17883737 27.26918553 55.63297966 29.47268924 54.60400391 33.17700195 C51.1896059 35.45326729 50.18549863 35.26371965 46.22900391 35.17700195 C43.2669243 35.27802677 43.2669243 35.27802677 40.60400391 36.17700195 C38.82404365 38.5174031 37.91090339 40.81597334 36.81884766 43.5402832 C33.0772322 51.66115277 24.45632093 55.04473579 16.60400391 58.17700195 C17.01126709 58.55397217 17.41853027 58.93094238 17.83813477 59.31933594 C21.8093155 62.99921833 25.76196044 66.69806356 29.70556641 70.4074707 C31.32158359 71.91375833 32.95524829 73.39436153 34.60400391 74.86450195 C40.42160209 80.23459259 40.42160209 80.23459259 41.35400391 85.05200195 C40.60400391 88.17700195 40.60400391 88.17700195 39.54150391 90.11450195 C36.33243503 91.87431392 34.22740665 91.65136485 30.60400391 91.17700195 C27.58511749 89.17558231 25.13782432 86.6895819 22.60400391 84.11450195 C21.93111328 83.45772461 21.25822266 82.80094727 20.56494141 82.12426758 C18.55947281 80.15945038 16.57857064 78.17283516 14.60400391 76.17700195 C9.29061804 70.79297788 9.29061804 70.79297788 3.66650391 65.73950195 C0.77985706 63.23059991 -2.06288909 60.68902612 -4.83349609 58.05200195 C-5.49220703 57.43067383 -6.15091797 56.8093457 -6.82958984 56.16918945 C-8.68523897 53.80913694 -9.11558906 52.14544879 -9.39599609 49.17700195 C-8.41869391 46.47062666 -7.99087164 45.47443973 -5.39599609 44.17700195 C-3.96893346 44.07244667 -2.5376725 44.02185493 -1.10693359 44.0012207 C0.18277344 43.96544922 0.18277344 43.96544922 1.49853516 43.92895508 C3.2951814 43.88654497 5.09212242 43.85499624 6.88916016 43.83520508 C12.82740291 43.64549896 17.70641761 42.72120829 22.60400391 39.17700195 C23.26400391 38.18700195 23.92400391 37.19700195 24.60400391 36.17700195 C23.26438599 36.15512817 23.26438599 36.15512817 21.89770508 36.1328125 C18.58183113 36.07173118 15.26678491 35.99757717 11.95141602 35.91455078 C10.51695763 35.88131195 9.08236878 35.8532766 7.64770508 35.83056641 C5.58439584 35.79699924 3.52228088 35.74468782 1.45947266 35.6887207 C0.21834717 35.66253662 -1.02277832 35.63635254 -2.30151367 35.609375 C-5.39599609 35.17700195 -5.39599609 35.17700195 -7.27368164 33.76220703 C-8.65730773 31.80791418 -9.18445776 30.57443645 -9.39599609 28.17700195 C-8.58349609 25.48950195 -8.58349609 25.48950195 -7.39599609 23.17700195 C-4.49675243 21.72738012 -1.87299254 21.95573714 1.36181641 21.8605957 C2.02486786 21.83981461 2.68791931 21.81903351 3.37106323 21.79762268 C5.49027085 21.73220965 7.60960291 21.6732809 9.72900391 21.61450195 C11.16521472 21.57130886 12.60141292 21.52769431 14.03759766 21.48364258 C17.55959984 21.37653696 21.08174215 21.2752462 24.60400391 21.17700195 C17.31512348 13.71572392 11.73259721 13.84784154 1.73291016 13.69848633 C0.86279297 13.67206055 -0.00732422 13.64563477 -0.90380859 13.6184082 C-1.69416504 13.60495361 -2.48452148 13.59149902 -3.29882812 13.57763672 C-5.89423678 13.08182 -6.76709224 12.21579338 -8.39599609 10.17700195 C-9.57445637 7.45747824 -9.45276921 6.36478994 -8.58349609 3.48950195 C-6.55131463 -0.46790405 -4.12919791 0.04080813 0 0 Z " fill="#000000" transform="translate(146.39599609375,194.822998046875)"/>
</svg>
